%TF.GenerationSoftware,KiCad,Pcbnew,7.0.7*%
%TF.CreationDate,2024-03-28T13:05:58+05:30*%
%TF.ProjectId,korby,6b6f7262-792e-46b6-9963-61645f706362,rev?*%
%TF.SameCoordinates,Original*%
%TF.FileFunction,Drillmap*%
%TF.FilePolarity,Positive*%
%FSLAX45Y45*%
G04 Gerber Fmt 4.5, Leading zero omitted, Abs format (unit mm)*
G04 Created by KiCad (PCBNEW 7.0.7) date 2024-03-28 13:05:58*
%MOMM*%
%LPD*%
G01*
G04 APERTURE LIST*
%ADD10C,0.100000*%
%ADD11C,0.200000*%
%ADD12C,0.120000*%
%ADD13C,0.320000*%
G04 APERTURE END LIST*
D10*
X13150000Y-6900000D02*
X15200000Y-6900000D01*
X12750000Y-8500000D02*
X12750000Y-7300000D01*
X15600000Y-7300000D02*
X15600000Y-8500000D01*
X15200000Y-8900000D02*
G75*
G03*
X15600000Y-8500000I0J400000D01*
G01*
X15600000Y-7300000D02*
G75*
G03*
X15200000Y-6900000I-400000J0D01*
G01*
X13150000Y-6900000D02*
G75*
G03*
X12750000Y-7300000I0J-400000D01*
G01*
X15200000Y-8900000D02*
X13150000Y-8900000D01*
X12750000Y-8500000D02*
G75*
G03*
X13150000Y-8900000I400000J0D01*
G01*
D11*
D10*
X14149500Y-7342000D02*
X14249500Y-7442000D01*
X14249500Y-7342000D02*
X14149500Y-7442000D01*
X14149500Y-7592000D02*
X14249500Y-7692000D01*
X14249500Y-7592000D02*
X14149500Y-7692000D01*
D12*
X14260000Y-7392000D02*
G75*
G03*
X14260000Y-7392000I-60000J0D01*
G01*
X14260000Y-7900000D02*
G75*
G03*
X14260000Y-7900000I-60000J0D01*
G01*
X14260000Y-8408000D02*
G75*
G03*
X14260000Y-8408000I-60000J0D01*
G01*
D13*
X13275000Y-7256800D02*
X13275000Y-7576800D01*
X13115000Y-7416800D02*
X13435000Y-7416800D01*
X13275000Y-8215000D02*
X13275000Y-8535000D01*
X13115000Y-8375000D02*
X13435000Y-8375000D01*
X15075000Y-7265000D02*
X15075000Y-7585000D01*
X14915000Y-7425000D02*
X15235000Y-7425000D01*
X15075000Y-8215000D02*
X15075000Y-8535000D01*
X14915000Y-8375000D02*
X15235000Y-8375000D01*
D11*
X13005777Y-9216484D02*
X13005777Y-9016484D01*
X13005777Y-9016484D02*
X13053396Y-9016484D01*
X13053396Y-9016484D02*
X13081967Y-9026008D01*
X13081967Y-9026008D02*
X13101015Y-9045055D01*
X13101015Y-9045055D02*
X13110539Y-9064103D01*
X13110539Y-9064103D02*
X13120062Y-9102198D01*
X13120062Y-9102198D02*
X13120062Y-9130770D01*
X13120062Y-9130770D02*
X13110539Y-9168865D01*
X13110539Y-9168865D02*
X13101015Y-9187912D01*
X13101015Y-9187912D02*
X13081967Y-9206960D01*
X13081967Y-9206960D02*
X13053396Y-9216484D01*
X13053396Y-9216484D02*
X13005777Y-9216484D01*
X13205777Y-9216484D02*
X13205777Y-9083150D01*
X13205777Y-9121246D02*
X13215301Y-9102198D01*
X13215301Y-9102198D02*
X13224824Y-9092674D01*
X13224824Y-9092674D02*
X13243872Y-9083150D01*
X13243872Y-9083150D02*
X13262920Y-9083150D01*
X13329586Y-9216484D02*
X13329586Y-9083150D01*
X13329586Y-9016484D02*
X13320062Y-9026008D01*
X13320062Y-9026008D02*
X13329586Y-9035531D01*
X13329586Y-9035531D02*
X13339110Y-9026008D01*
X13339110Y-9026008D02*
X13329586Y-9016484D01*
X13329586Y-9016484D02*
X13329586Y-9035531D01*
X13453396Y-9216484D02*
X13434348Y-9206960D01*
X13434348Y-9206960D02*
X13424824Y-9187912D01*
X13424824Y-9187912D02*
X13424824Y-9016484D01*
X13558158Y-9216484D02*
X13539110Y-9206960D01*
X13539110Y-9206960D02*
X13529586Y-9187912D01*
X13529586Y-9187912D02*
X13529586Y-9016484D01*
X13786729Y-9216484D02*
X13786729Y-9016484D01*
X13786729Y-9016484D02*
X13853396Y-9159341D01*
X13853396Y-9159341D02*
X13920062Y-9016484D01*
X13920062Y-9016484D02*
X13920062Y-9216484D01*
X14101015Y-9216484D02*
X14101015Y-9111722D01*
X14101015Y-9111722D02*
X14091491Y-9092674D01*
X14091491Y-9092674D02*
X14072443Y-9083150D01*
X14072443Y-9083150D02*
X14034348Y-9083150D01*
X14034348Y-9083150D02*
X14015301Y-9092674D01*
X14101015Y-9206960D02*
X14081967Y-9216484D01*
X14081967Y-9216484D02*
X14034348Y-9216484D01*
X14034348Y-9216484D02*
X14015301Y-9206960D01*
X14015301Y-9206960D02*
X14005777Y-9187912D01*
X14005777Y-9187912D02*
X14005777Y-9168865D01*
X14005777Y-9168865D02*
X14015301Y-9149817D01*
X14015301Y-9149817D02*
X14034348Y-9140293D01*
X14034348Y-9140293D02*
X14081967Y-9140293D01*
X14081967Y-9140293D02*
X14101015Y-9130770D01*
X14196253Y-9083150D02*
X14196253Y-9283150D01*
X14196253Y-9092674D02*
X14215301Y-9083150D01*
X14215301Y-9083150D02*
X14253396Y-9083150D01*
X14253396Y-9083150D02*
X14272443Y-9092674D01*
X14272443Y-9092674D02*
X14281967Y-9102198D01*
X14281967Y-9102198D02*
X14291491Y-9121246D01*
X14291491Y-9121246D02*
X14291491Y-9178389D01*
X14291491Y-9178389D02*
X14281967Y-9197436D01*
X14281967Y-9197436D02*
X14272443Y-9206960D01*
X14272443Y-9206960D02*
X14253396Y-9216484D01*
X14253396Y-9216484D02*
X14215301Y-9216484D01*
X14215301Y-9216484D02*
X14196253Y-9206960D01*
X14377205Y-9197436D02*
X14386729Y-9206960D01*
X14386729Y-9206960D02*
X14377205Y-9216484D01*
X14377205Y-9216484D02*
X14367682Y-9206960D01*
X14367682Y-9206960D02*
X14377205Y-9197436D01*
X14377205Y-9197436D02*
X14377205Y-9216484D01*
X14377205Y-9092674D02*
X14386729Y-9102198D01*
X14386729Y-9102198D02*
X14377205Y-9111722D01*
X14377205Y-9111722D02*
X14367682Y-9102198D01*
X14367682Y-9102198D02*
X14377205Y-9092674D01*
X14377205Y-9092674D02*
X14377205Y-9111722D01*
D10*
X12645000Y-9495000D02*
X12745000Y-9595000D01*
X12745000Y-9495000D02*
X12645000Y-9595000D01*
D11*
X13110539Y-9636484D02*
X12996253Y-9636484D01*
X13053396Y-9636484D02*
X13053396Y-9436484D01*
X13053396Y-9436484D02*
X13034348Y-9465055D01*
X13034348Y-9465055D02*
X13015301Y-9484103D01*
X13015301Y-9484103D02*
X12996253Y-9493627D01*
X13196253Y-9617436D02*
X13205777Y-9626960D01*
X13205777Y-9626960D02*
X13196253Y-9636484D01*
X13196253Y-9636484D02*
X13186729Y-9626960D01*
X13186729Y-9626960D02*
X13196253Y-9617436D01*
X13196253Y-9617436D02*
X13196253Y-9636484D01*
X13329586Y-9436484D02*
X13348634Y-9436484D01*
X13348634Y-9436484D02*
X13367682Y-9446008D01*
X13367682Y-9446008D02*
X13377205Y-9455531D01*
X13377205Y-9455531D02*
X13386729Y-9474579D01*
X13386729Y-9474579D02*
X13396253Y-9512674D01*
X13396253Y-9512674D02*
X13396253Y-9560293D01*
X13396253Y-9560293D02*
X13386729Y-9598389D01*
X13386729Y-9598389D02*
X13377205Y-9617436D01*
X13377205Y-9617436D02*
X13367682Y-9626960D01*
X13367682Y-9626960D02*
X13348634Y-9636484D01*
X13348634Y-9636484D02*
X13329586Y-9636484D01*
X13329586Y-9636484D02*
X13310539Y-9626960D01*
X13310539Y-9626960D02*
X13301015Y-9617436D01*
X13301015Y-9617436D02*
X13291491Y-9598389D01*
X13291491Y-9598389D02*
X13281967Y-9560293D01*
X13281967Y-9560293D02*
X13281967Y-9512674D01*
X13281967Y-9512674D02*
X13291491Y-9474579D01*
X13291491Y-9474579D02*
X13301015Y-9455531D01*
X13301015Y-9455531D02*
X13310539Y-9446008D01*
X13310539Y-9446008D02*
X13329586Y-9436484D01*
X13520062Y-9436484D02*
X13539110Y-9436484D01*
X13539110Y-9436484D02*
X13558158Y-9446008D01*
X13558158Y-9446008D02*
X13567682Y-9455531D01*
X13567682Y-9455531D02*
X13577205Y-9474579D01*
X13577205Y-9474579D02*
X13586729Y-9512674D01*
X13586729Y-9512674D02*
X13586729Y-9560293D01*
X13586729Y-9560293D02*
X13577205Y-9598389D01*
X13577205Y-9598389D02*
X13567682Y-9617436D01*
X13567682Y-9617436D02*
X13558158Y-9626960D01*
X13558158Y-9626960D02*
X13539110Y-9636484D01*
X13539110Y-9636484D02*
X13520062Y-9636484D01*
X13520062Y-9636484D02*
X13501015Y-9626960D01*
X13501015Y-9626960D02*
X13491491Y-9617436D01*
X13491491Y-9617436D02*
X13481967Y-9598389D01*
X13481967Y-9598389D02*
X13472443Y-9560293D01*
X13472443Y-9560293D02*
X13472443Y-9512674D01*
X13472443Y-9512674D02*
X13481967Y-9474579D01*
X13481967Y-9474579D02*
X13491491Y-9455531D01*
X13491491Y-9455531D02*
X13501015Y-9446008D01*
X13501015Y-9446008D02*
X13520062Y-9436484D01*
X13710539Y-9436484D02*
X13729586Y-9436484D01*
X13729586Y-9436484D02*
X13748634Y-9446008D01*
X13748634Y-9446008D02*
X13758158Y-9455531D01*
X13758158Y-9455531D02*
X13767682Y-9474579D01*
X13767682Y-9474579D02*
X13777205Y-9512674D01*
X13777205Y-9512674D02*
X13777205Y-9560293D01*
X13777205Y-9560293D02*
X13767682Y-9598389D01*
X13767682Y-9598389D02*
X13758158Y-9617436D01*
X13758158Y-9617436D02*
X13748634Y-9626960D01*
X13748634Y-9626960D02*
X13729586Y-9636484D01*
X13729586Y-9636484D02*
X13710539Y-9636484D01*
X13710539Y-9636484D02*
X13691491Y-9626960D01*
X13691491Y-9626960D02*
X13681967Y-9617436D01*
X13681967Y-9617436D02*
X13672443Y-9598389D01*
X13672443Y-9598389D02*
X13662920Y-9560293D01*
X13662920Y-9560293D02*
X13662920Y-9512674D01*
X13662920Y-9512674D02*
X13672443Y-9474579D01*
X13672443Y-9474579D02*
X13681967Y-9455531D01*
X13681967Y-9455531D02*
X13691491Y-9446008D01*
X13691491Y-9446008D02*
X13710539Y-9436484D01*
X13862920Y-9636484D02*
X13862920Y-9503150D01*
X13862920Y-9522198D02*
X13872443Y-9512674D01*
X13872443Y-9512674D02*
X13891491Y-9503150D01*
X13891491Y-9503150D02*
X13920063Y-9503150D01*
X13920063Y-9503150D02*
X13939110Y-9512674D01*
X13939110Y-9512674D02*
X13948634Y-9531722D01*
X13948634Y-9531722D02*
X13948634Y-9636484D01*
X13948634Y-9531722D02*
X13958158Y-9512674D01*
X13958158Y-9512674D02*
X13977205Y-9503150D01*
X13977205Y-9503150D02*
X14005777Y-9503150D01*
X14005777Y-9503150D02*
X14024824Y-9512674D01*
X14024824Y-9512674D02*
X14034348Y-9531722D01*
X14034348Y-9531722D02*
X14034348Y-9636484D01*
X14129586Y-9636484D02*
X14129586Y-9503150D01*
X14129586Y-9522198D02*
X14139110Y-9512674D01*
X14139110Y-9512674D02*
X14158158Y-9503150D01*
X14158158Y-9503150D02*
X14186729Y-9503150D01*
X14186729Y-9503150D02*
X14205777Y-9512674D01*
X14205777Y-9512674D02*
X14215301Y-9531722D01*
X14215301Y-9531722D02*
X14215301Y-9636484D01*
X14215301Y-9531722D02*
X14224824Y-9512674D01*
X14224824Y-9512674D02*
X14243872Y-9503150D01*
X14243872Y-9503150D02*
X14272443Y-9503150D01*
X14272443Y-9503150D02*
X14291491Y-9512674D01*
X14291491Y-9512674D02*
X14301015Y-9531722D01*
X14301015Y-9531722D02*
X14301015Y-9636484D01*
X14691491Y-9426960D02*
X14520063Y-9684103D01*
X14948634Y-9436484D02*
X14967682Y-9436484D01*
X14967682Y-9436484D02*
X14986729Y-9446008D01*
X14986729Y-9446008D02*
X14996253Y-9455531D01*
X14996253Y-9455531D02*
X15005777Y-9474579D01*
X15005777Y-9474579D02*
X15015301Y-9512674D01*
X15015301Y-9512674D02*
X15015301Y-9560293D01*
X15015301Y-9560293D02*
X15005777Y-9598389D01*
X15005777Y-9598389D02*
X14996253Y-9617436D01*
X14996253Y-9617436D02*
X14986729Y-9626960D01*
X14986729Y-9626960D02*
X14967682Y-9636484D01*
X14967682Y-9636484D02*
X14948634Y-9636484D01*
X14948634Y-9636484D02*
X14929586Y-9626960D01*
X14929586Y-9626960D02*
X14920063Y-9617436D01*
X14920063Y-9617436D02*
X14910539Y-9598389D01*
X14910539Y-9598389D02*
X14901015Y-9560293D01*
X14901015Y-9560293D02*
X14901015Y-9512674D01*
X14901015Y-9512674D02*
X14910539Y-9474579D01*
X14910539Y-9474579D02*
X14920063Y-9455531D01*
X14920063Y-9455531D02*
X14929586Y-9446008D01*
X14929586Y-9446008D02*
X14948634Y-9436484D01*
X15101015Y-9617436D02*
X15110539Y-9626960D01*
X15110539Y-9626960D02*
X15101015Y-9636484D01*
X15101015Y-9636484D02*
X15091491Y-9626960D01*
X15091491Y-9626960D02*
X15101015Y-9617436D01*
X15101015Y-9617436D02*
X15101015Y-9636484D01*
X15234348Y-9436484D02*
X15253396Y-9436484D01*
X15253396Y-9436484D02*
X15272444Y-9446008D01*
X15272444Y-9446008D02*
X15281967Y-9455531D01*
X15281967Y-9455531D02*
X15291491Y-9474579D01*
X15291491Y-9474579D02*
X15301015Y-9512674D01*
X15301015Y-9512674D02*
X15301015Y-9560293D01*
X15301015Y-9560293D02*
X15291491Y-9598389D01*
X15291491Y-9598389D02*
X15281967Y-9617436D01*
X15281967Y-9617436D02*
X15272444Y-9626960D01*
X15272444Y-9626960D02*
X15253396Y-9636484D01*
X15253396Y-9636484D02*
X15234348Y-9636484D01*
X15234348Y-9636484D02*
X15215301Y-9626960D01*
X15215301Y-9626960D02*
X15205777Y-9617436D01*
X15205777Y-9617436D02*
X15196253Y-9598389D01*
X15196253Y-9598389D02*
X15186729Y-9560293D01*
X15186729Y-9560293D02*
X15186729Y-9512674D01*
X15186729Y-9512674D02*
X15196253Y-9474579D01*
X15196253Y-9474579D02*
X15205777Y-9455531D01*
X15205777Y-9455531D02*
X15215301Y-9446008D01*
X15215301Y-9446008D02*
X15234348Y-9436484D01*
X15367682Y-9436484D02*
X15491491Y-9436484D01*
X15491491Y-9436484D02*
X15424825Y-9512674D01*
X15424825Y-9512674D02*
X15453396Y-9512674D01*
X15453396Y-9512674D02*
X15472444Y-9522198D01*
X15472444Y-9522198D02*
X15481967Y-9531722D01*
X15481967Y-9531722D02*
X15491491Y-9550770D01*
X15491491Y-9550770D02*
X15491491Y-9598389D01*
X15491491Y-9598389D02*
X15481967Y-9617436D01*
X15481967Y-9617436D02*
X15472444Y-9626960D01*
X15472444Y-9626960D02*
X15453396Y-9636484D01*
X15453396Y-9636484D02*
X15396253Y-9636484D01*
X15396253Y-9636484D02*
X15377206Y-9626960D01*
X15377206Y-9626960D02*
X15367682Y-9617436D01*
X15586729Y-9636484D02*
X15624825Y-9636484D01*
X15624825Y-9636484D02*
X15643872Y-9626960D01*
X15643872Y-9626960D02*
X15653396Y-9617436D01*
X15653396Y-9617436D02*
X15672444Y-9588865D01*
X15672444Y-9588865D02*
X15681967Y-9550770D01*
X15681967Y-9550770D02*
X15681967Y-9474579D01*
X15681967Y-9474579D02*
X15672444Y-9455531D01*
X15672444Y-9455531D02*
X15662920Y-9446008D01*
X15662920Y-9446008D02*
X15643872Y-9436484D01*
X15643872Y-9436484D02*
X15605777Y-9436484D01*
X15605777Y-9436484D02*
X15586729Y-9446008D01*
X15586729Y-9446008D02*
X15577206Y-9455531D01*
X15577206Y-9455531D02*
X15567682Y-9474579D01*
X15567682Y-9474579D02*
X15567682Y-9522198D01*
X15567682Y-9522198D02*
X15577206Y-9541246D01*
X15577206Y-9541246D02*
X15586729Y-9550770D01*
X15586729Y-9550770D02*
X15605777Y-9560293D01*
X15605777Y-9560293D02*
X15643872Y-9560293D01*
X15643872Y-9560293D02*
X15662920Y-9550770D01*
X15662920Y-9550770D02*
X15672444Y-9541246D01*
X15672444Y-9541246D02*
X15681967Y-9522198D01*
X15853396Y-9503150D02*
X15853396Y-9636484D01*
X15805777Y-9426960D02*
X15758158Y-9569817D01*
X15758158Y-9569817D02*
X15881967Y-9569817D01*
X15948634Y-9436484D02*
X15948634Y-9474579D01*
X16024825Y-9436484D02*
X16024825Y-9474579D01*
X16320063Y-9712674D02*
X16310539Y-9703150D01*
X16310539Y-9703150D02*
X16291491Y-9674579D01*
X16291491Y-9674579D02*
X16281968Y-9655531D01*
X16281968Y-9655531D02*
X16272444Y-9626960D01*
X16272444Y-9626960D02*
X16262920Y-9579341D01*
X16262920Y-9579341D02*
X16262920Y-9541246D01*
X16262920Y-9541246D02*
X16272444Y-9493627D01*
X16272444Y-9493627D02*
X16281968Y-9465055D01*
X16281968Y-9465055D02*
X16291491Y-9446008D01*
X16291491Y-9446008D02*
X16310539Y-9417436D01*
X16310539Y-9417436D02*
X16320063Y-9407912D01*
X16386729Y-9455531D02*
X16396253Y-9446008D01*
X16396253Y-9446008D02*
X16415301Y-9436484D01*
X16415301Y-9436484D02*
X16462920Y-9436484D01*
X16462920Y-9436484D02*
X16481968Y-9446008D01*
X16481968Y-9446008D02*
X16491491Y-9455531D01*
X16491491Y-9455531D02*
X16501015Y-9474579D01*
X16501015Y-9474579D02*
X16501015Y-9493627D01*
X16501015Y-9493627D02*
X16491491Y-9522198D01*
X16491491Y-9522198D02*
X16377206Y-9636484D01*
X16377206Y-9636484D02*
X16501015Y-9636484D01*
X16739110Y-9636484D02*
X16739110Y-9436484D01*
X16824825Y-9636484D02*
X16824825Y-9531722D01*
X16824825Y-9531722D02*
X16815301Y-9512674D01*
X16815301Y-9512674D02*
X16796253Y-9503150D01*
X16796253Y-9503150D02*
X16767682Y-9503150D01*
X16767682Y-9503150D02*
X16748634Y-9512674D01*
X16748634Y-9512674D02*
X16739110Y-9522198D01*
X16948634Y-9636484D02*
X16929587Y-9626960D01*
X16929587Y-9626960D02*
X16920063Y-9617436D01*
X16920063Y-9617436D02*
X16910539Y-9598389D01*
X16910539Y-9598389D02*
X16910539Y-9541246D01*
X16910539Y-9541246D02*
X16920063Y-9522198D01*
X16920063Y-9522198D02*
X16929587Y-9512674D01*
X16929587Y-9512674D02*
X16948634Y-9503150D01*
X16948634Y-9503150D02*
X16977206Y-9503150D01*
X16977206Y-9503150D02*
X16996253Y-9512674D01*
X16996253Y-9512674D02*
X17005777Y-9522198D01*
X17005777Y-9522198D02*
X17015301Y-9541246D01*
X17015301Y-9541246D02*
X17015301Y-9598389D01*
X17015301Y-9598389D02*
X17005777Y-9617436D01*
X17005777Y-9617436D02*
X16996253Y-9626960D01*
X16996253Y-9626960D02*
X16977206Y-9636484D01*
X16977206Y-9636484D02*
X16948634Y-9636484D01*
X17129587Y-9636484D02*
X17110539Y-9626960D01*
X17110539Y-9626960D02*
X17101015Y-9607912D01*
X17101015Y-9607912D02*
X17101015Y-9436484D01*
X17281968Y-9626960D02*
X17262920Y-9636484D01*
X17262920Y-9636484D02*
X17224825Y-9636484D01*
X17224825Y-9636484D02*
X17205777Y-9626960D01*
X17205777Y-9626960D02*
X17196253Y-9607912D01*
X17196253Y-9607912D02*
X17196253Y-9531722D01*
X17196253Y-9531722D02*
X17205777Y-9512674D01*
X17205777Y-9512674D02*
X17224825Y-9503150D01*
X17224825Y-9503150D02*
X17262920Y-9503150D01*
X17262920Y-9503150D02*
X17281968Y-9512674D01*
X17281968Y-9512674D02*
X17291492Y-9531722D01*
X17291492Y-9531722D02*
X17291492Y-9550770D01*
X17291492Y-9550770D02*
X17196253Y-9569817D01*
X17367682Y-9626960D02*
X17386730Y-9636484D01*
X17386730Y-9636484D02*
X17424825Y-9636484D01*
X17424825Y-9636484D02*
X17443873Y-9626960D01*
X17443873Y-9626960D02*
X17453396Y-9607912D01*
X17453396Y-9607912D02*
X17453396Y-9598389D01*
X17453396Y-9598389D02*
X17443873Y-9579341D01*
X17443873Y-9579341D02*
X17424825Y-9569817D01*
X17424825Y-9569817D02*
X17396253Y-9569817D01*
X17396253Y-9569817D02*
X17377206Y-9560293D01*
X17377206Y-9560293D02*
X17367682Y-9541246D01*
X17367682Y-9541246D02*
X17367682Y-9531722D01*
X17367682Y-9531722D02*
X17377206Y-9512674D01*
X17377206Y-9512674D02*
X17396253Y-9503150D01*
X17396253Y-9503150D02*
X17424825Y-9503150D01*
X17424825Y-9503150D02*
X17443873Y-9512674D01*
X17520063Y-9712674D02*
X17529587Y-9703150D01*
X17529587Y-9703150D02*
X17548634Y-9674579D01*
X17548634Y-9674579D02*
X17558158Y-9655531D01*
X17558158Y-9655531D02*
X17567682Y-9626960D01*
X17567682Y-9626960D02*
X17577206Y-9579341D01*
X17577206Y-9579341D02*
X17577206Y-9541246D01*
X17577206Y-9541246D02*
X17567682Y-9493627D01*
X17567682Y-9493627D02*
X17558158Y-9465055D01*
X17558158Y-9465055D02*
X17548634Y-9446008D01*
X17548634Y-9446008D02*
X17529587Y-9417436D01*
X17529587Y-9417436D02*
X17520063Y-9407912D01*
D12*
X12745000Y-9809000D02*
G75*
G03*
X12745000Y-9809000I-60000J0D01*
G01*
D11*
X13110539Y-9900484D02*
X12996253Y-9900484D01*
X13053396Y-9900484D02*
X13053396Y-9700484D01*
X13053396Y-9700484D02*
X13034348Y-9729055D01*
X13034348Y-9729055D02*
X13015301Y-9748103D01*
X13015301Y-9748103D02*
X12996253Y-9757627D01*
X13196253Y-9881436D02*
X13205777Y-9890960D01*
X13205777Y-9890960D02*
X13196253Y-9900484D01*
X13196253Y-9900484D02*
X13186729Y-9890960D01*
X13186729Y-9890960D02*
X13196253Y-9881436D01*
X13196253Y-9881436D02*
X13196253Y-9900484D01*
X13281967Y-9719531D02*
X13291491Y-9710008D01*
X13291491Y-9710008D02*
X13310539Y-9700484D01*
X13310539Y-9700484D02*
X13358158Y-9700484D01*
X13358158Y-9700484D02*
X13377205Y-9710008D01*
X13377205Y-9710008D02*
X13386729Y-9719531D01*
X13386729Y-9719531D02*
X13396253Y-9738579D01*
X13396253Y-9738579D02*
X13396253Y-9757627D01*
X13396253Y-9757627D02*
X13386729Y-9786198D01*
X13386729Y-9786198D02*
X13272443Y-9900484D01*
X13272443Y-9900484D02*
X13396253Y-9900484D01*
X13520062Y-9700484D02*
X13539110Y-9700484D01*
X13539110Y-9700484D02*
X13558158Y-9710008D01*
X13558158Y-9710008D02*
X13567682Y-9719531D01*
X13567682Y-9719531D02*
X13577205Y-9738579D01*
X13577205Y-9738579D02*
X13586729Y-9776674D01*
X13586729Y-9776674D02*
X13586729Y-9824293D01*
X13586729Y-9824293D02*
X13577205Y-9862389D01*
X13577205Y-9862389D02*
X13567682Y-9881436D01*
X13567682Y-9881436D02*
X13558158Y-9890960D01*
X13558158Y-9890960D02*
X13539110Y-9900484D01*
X13539110Y-9900484D02*
X13520062Y-9900484D01*
X13520062Y-9900484D02*
X13501015Y-9890960D01*
X13501015Y-9890960D02*
X13491491Y-9881436D01*
X13491491Y-9881436D02*
X13481967Y-9862389D01*
X13481967Y-9862389D02*
X13472443Y-9824293D01*
X13472443Y-9824293D02*
X13472443Y-9776674D01*
X13472443Y-9776674D02*
X13481967Y-9738579D01*
X13481967Y-9738579D02*
X13491491Y-9719531D01*
X13491491Y-9719531D02*
X13501015Y-9710008D01*
X13501015Y-9710008D02*
X13520062Y-9700484D01*
X13710539Y-9700484D02*
X13729586Y-9700484D01*
X13729586Y-9700484D02*
X13748634Y-9710008D01*
X13748634Y-9710008D02*
X13758158Y-9719531D01*
X13758158Y-9719531D02*
X13767682Y-9738579D01*
X13767682Y-9738579D02*
X13777205Y-9776674D01*
X13777205Y-9776674D02*
X13777205Y-9824293D01*
X13777205Y-9824293D02*
X13767682Y-9862389D01*
X13767682Y-9862389D02*
X13758158Y-9881436D01*
X13758158Y-9881436D02*
X13748634Y-9890960D01*
X13748634Y-9890960D02*
X13729586Y-9900484D01*
X13729586Y-9900484D02*
X13710539Y-9900484D01*
X13710539Y-9900484D02*
X13691491Y-9890960D01*
X13691491Y-9890960D02*
X13681967Y-9881436D01*
X13681967Y-9881436D02*
X13672443Y-9862389D01*
X13672443Y-9862389D02*
X13662920Y-9824293D01*
X13662920Y-9824293D02*
X13662920Y-9776674D01*
X13662920Y-9776674D02*
X13672443Y-9738579D01*
X13672443Y-9738579D02*
X13681967Y-9719531D01*
X13681967Y-9719531D02*
X13691491Y-9710008D01*
X13691491Y-9710008D02*
X13710539Y-9700484D01*
X13862920Y-9900484D02*
X13862920Y-9767150D01*
X13862920Y-9786198D02*
X13872443Y-9776674D01*
X13872443Y-9776674D02*
X13891491Y-9767150D01*
X13891491Y-9767150D02*
X13920063Y-9767150D01*
X13920063Y-9767150D02*
X13939110Y-9776674D01*
X13939110Y-9776674D02*
X13948634Y-9795722D01*
X13948634Y-9795722D02*
X13948634Y-9900484D01*
X13948634Y-9795722D02*
X13958158Y-9776674D01*
X13958158Y-9776674D02*
X13977205Y-9767150D01*
X13977205Y-9767150D02*
X14005777Y-9767150D01*
X14005777Y-9767150D02*
X14024824Y-9776674D01*
X14024824Y-9776674D02*
X14034348Y-9795722D01*
X14034348Y-9795722D02*
X14034348Y-9900484D01*
X14129586Y-9900484D02*
X14129586Y-9767150D01*
X14129586Y-9786198D02*
X14139110Y-9776674D01*
X14139110Y-9776674D02*
X14158158Y-9767150D01*
X14158158Y-9767150D02*
X14186729Y-9767150D01*
X14186729Y-9767150D02*
X14205777Y-9776674D01*
X14205777Y-9776674D02*
X14215301Y-9795722D01*
X14215301Y-9795722D02*
X14215301Y-9900484D01*
X14215301Y-9795722D02*
X14224824Y-9776674D01*
X14224824Y-9776674D02*
X14243872Y-9767150D01*
X14243872Y-9767150D02*
X14272443Y-9767150D01*
X14272443Y-9767150D02*
X14291491Y-9776674D01*
X14291491Y-9776674D02*
X14301015Y-9795722D01*
X14301015Y-9795722D02*
X14301015Y-9900484D01*
X14691491Y-9690960D02*
X14520063Y-9948103D01*
X14948634Y-9700484D02*
X14967682Y-9700484D01*
X14967682Y-9700484D02*
X14986729Y-9710008D01*
X14986729Y-9710008D02*
X14996253Y-9719531D01*
X14996253Y-9719531D02*
X15005777Y-9738579D01*
X15005777Y-9738579D02*
X15015301Y-9776674D01*
X15015301Y-9776674D02*
X15015301Y-9824293D01*
X15015301Y-9824293D02*
X15005777Y-9862389D01*
X15005777Y-9862389D02*
X14996253Y-9881436D01*
X14996253Y-9881436D02*
X14986729Y-9890960D01*
X14986729Y-9890960D02*
X14967682Y-9900484D01*
X14967682Y-9900484D02*
X14948634Y-9900484D01*
X14948634Y-9900484D02*
X14929586Y-9890960D01*
X14929586Y-9890960D02*
X14920063Y-9881436D01*
X14920063Y-9881436D02*
X14910539Y-9862389D01*
X14910539Y-9862389D02*
X14901015Y-9824293D01*
X14901015Y-9824293D02*
X14901015Y-9776674D01*
X14901015Y-9776674D02*
X14910539Y-9738579D01*
X14910539Y-9738579D02*
X14920063Y-9719531D01*
X14920063Y-9719531D02*
X14929586Y-9710008D01*
X14929586Y-9710008D02*
X14948634Y-9700484D01*
X15101015Y-9881436D02*
X15110539Y-9890960D01*
X15110539Y-9890960D02*
X15101015Y-9900484D01*
X15101015Y-9900484D02*
X15091491Y-9890960D01*
X15091491Y-9890960D02*
X15101015Y-9881436D01*
X15101015Y-9881436D02*
X15101015Y-9900484D01*
X15234348Y-9700484D02*
X15253396Y-9700484D01*
X15253396Y-9700484D02*
X15272444Y-9710008D01*
X15272444Y-9710008D02*
X15281967Y-9719531D01*
X15281967Y-9719531D02*
X15291491Y-9738579D01*
X15291491Y-9738579D02*
X15301015Y-9776674D01*
X15301015Y-9776674D02*
X15301015Y-9824293D01*
X15301015Y-9824293D02*
X15291491Y-9862389D01*
X15291491Y-9862389D02*
X15281967Y-9881436D01*
X15281967Y-9881436D02*
X15272444Y-9890960D01*
X15272444Y-9890960D02*
X15253396Y-9900484D01*
X15253396Y-9900484D02*
X15234348Y-9900484D01*
X15234348Y-9900484D02*
X15215301Y-9890960D01*
X15215301Y-9890960D02*
X15205777Y-9881436D01*
X15205777Y-9881436D02*
X15196253Y-9862389D01*
X15196253Y-9862389D02*
X15186729Y-9824293D01*
X15186729Y-9824293D02*
X15186729Y-9776674D01*
X15186729Y-9776674D02*
X15196253Y-9738579D01*
X15196253Y-9738579D02*
X15205777Y-9719531D01*
X15205777Y-9719531D02*
X15215301Y-9710008D01*
X15215301Y-9710008D02*
X15234348Y-9700484D01*
X15472444Y-9767150D02*
X15472444Y-9900484D01*
X15424825Y-9690960D02*
X15377206Y-9833817D01*
X15377206Y-9833817D02*
X15501015Y-9833817D01*
X15558158Y-9700484D02*
X15691491Y-9700484D01*
X15691491Y-9700484D02*
X15605777Y-9900484D01*
X15758158Y-9719531D02*
X15767682Y-9710008D01*
X15767682Y-9710008D02*
X15786729Y-9700484D01*
X15786729Y-9700484D02*
X15834348Y-9700484D01*
X15834348Y-9700484D02*
X15853396Y-9710008D01*
X15853396Y-9710008D02*
X15862920Y-9719531D01*
X15862920Y-9719531D02*
X15872444Y-9738579D01*
X15872444Y-9738579D02*
X15872444Y-9757627D01*
X15872444Y-9757627D02*
X15862920Y-9786198D01*
X15862920Y-9786198D02*
X15748634Y-9900484D01*
X15748634Y-9900484D02*
X15872444Y-9900484D01*
X15948634Y-9700484D02*
X15948634Y-9738579D01*
X16024825Y-9700484D02*
X16024825Y-9738579D01*
X16320063Y-9976674D02*
X16310539Y-9967150D01*
X16310539Y-9967150D02*
X16291491Y-9938579D01*
X16291491Y-9938579D02*
X16281968Y-9919531D01*
X16281968Y-9919531D02*
X16272444Y-9890960D01*
X16272444Y-9890960D02*
X16262920Y-9843341D01*
X16262920Y-9843341D02*
X16262920Y-9805246D01*
X16262920Y-9805246D02*
X16272444Y-9757627D01*
X16272444Y-9757627D02*
X16281968Y-9729055D01*
X16281968Y-9729055D02*
X16291491Y-9710008D01*
X16291491Y-9710008D02*
X16310539Y-9681436D01*
X16310539Y-9681436D02*
X16320063Y-9671912D01*
X16377206Y-9700484D02*
X16501015Y-9700484D01*
X16501015Y-9700484D02*
X16434348Y-9776674D01*
X16434348Y-9776674D02*
X16462920Y-9776674D01*
X16462920Y-9776674D02*
X16481968Y-9786198D01*
X16481968Y-9786198D02*
X16491491Y-9795722D01*
X16491491Y-9795722D02*
X16501015Y-9814770D01*
X16501015Y-9814770D02*
X16501015Y-9862389D01*
X16501015Y-9862389D02*
X16491491Y-9881436D01*
X16491491Y-9881436D02*
X16481968Y-9890960D01*
X16481968Y-9890960D02*
X16462920Y-9900484D01*
X16462920Y-9900484D02*
X16405777Y-9900484D01*
X16405777Y-9900484D02*
X16386729Y-9890960D01*
X16386729Y-9890960D02*
X16377206Y-9881436D01*
X16739110Y-9900484D02*
X16739110Y-9700484D01*
X16824825Y-9900484D02*
X16824825Y-9795722D01*
X16824825Y-9795722D02*
X16815301Y-9776674D01*
X16815301Y-9776674D02*
X16796253Y-9767150D01*
X16796253Y-9767150D02*
X16767682Y-9767150D01*
X16767682Y-9767150D02*
X16748634Y-9776674D01*
X16748634Y-9776674D02*
X16739110Y-9786198D01*
X16948634Y-9900484D02*
X16929587Y-9890960D01*
X16929587Y-9890960D02*
X16920063Y-9881436D01*
X16920063Y-9881436D02*
X16910539Y-9862389D01*
X16910539Y-9862389D02*
X16910539Y-9805246D01*
X16910539Y-9805246D02*
X16920063Y-9786198D01*
X16920063Y-9786198D02*
X16929587Y-9776674D01*
X16929587Y-9776674D02*
X16948634Y-9767150D01*
X16948634Y-9767150D02*
X16977206Y-9767150D01*
X16977206Y-9767150D02*
X16996253Y-9776674D01*
X16996253Y-9776674D02*
X17005777Y-9786198D01*
X17005777Y-9786198D02*
X17015301Y-9805246D01*
X17015301Y-9805246D02*
X17015301Y-9862389D01*
X17015301Y-9862389D02*
X17005777Y-9881436D01*
X17005777Y-9881436D02*
X16996253Y-9890960D01*
X16996253Y-9890960D02*
X16977206Y-9900484D01*
X16977206Y-9900484D02*
X16948634Y-9900484D01*
X17129587Y-9900484D02*
X17110539Y-9890960D01*
X17110539Y-9890960D02*
X17101015Y-9871912D01*
X17101015Y-9871912D02*
X17101015Y-9700484D01*
X17281968Y-9890960D02*
X17262920Y-9900484D01*
X17262920Y-9900484D02*
X17224825Y-9900484D01*
X17224825Y-9900484D02*
X17205777Y-9890960D01*
X17205777Y-9890960D02*
X17196253Y-9871912D01*
X17196253Y-9871912D02*
X17196253Y-9795722D01*
X17196253Y-9795722D02*
X17205777Y-9776674D01*
X17205777Y-9776674D02*
X17224825Y-9767150D01*
X17224825Y-9767150D02*
X17262920Y-9767150D01*
X17262920Y-9767150D02*
X17281968Y-9776674D01*
X17281968Y-9776674D02*
X17291492Y-9795722D01*
X17291492Y-9795722D02*
X17291492Y-9814770D01*
X17291492Y-9814770D02*
X17196253Y-9833817D01*
X17367682Y-9890960D02*
X17386730Y-9900484D01*
X17386730Y-9900484D02*
X17424825Y-9900484D01*
X17424825Y-9900484D02*
X17443873Y-9890960D01*
X17443873Y-9890960D02*
X17453396Y-9871912D01*
X17453396Y-9871912D02*
X17453396Y-9862389D01*
X17453396Y-9862389D02*
X17443873Y-9843341D01*
X17443873Y-9843341D02*
X17424825Y-9833817D01*
X17424825Y-9833817D02*
X17396253Y-9833817D01*
X17396253Y-9833817D02*
X17377206Y-9824293D01*
X17377206Y-9824293D02*
X17367682Y-9805246D01*
X17367682Y-9805246D02*
X17367682Y-9795722D01*
X17367682Y-9795722D02*
X17377206Y-9776674D01*
X17377206Y-9776674D02*
X17396253Y-9767150D01*
X17396253Y-9767150D02*
X17424825Y-9767150D01*
X17424825Y-9767150D02*
X17443873Y-9776674D01*
X17520063Y-9976674D02*
X17529587Y-9967150D01*
X17529587Y-9967150D02*
X17548634Y-9938579D01*
X17548634Y-9938579D02*
X17558158Y-9919531D01*
X17558158Y-9919531D02*
X17567682Y-9890960D01*
X17567682Y-9890960D02*
X17577206Y-9843341D01*
X17577206Y-9843341D02*
X17577206Y-9805246D01*
X17577206Y-9805246D02*
X17567682Y-9757627D01*
X17567682Y-9757627D02*
X17558158Y-9729055D01*
X17558158Y-9729055D02*
X17548634Y-9710008D01*
X17548634Y-9710008D02*
X17529587Y-9681436D01*
X17529587Y-9681436D02*
X17520063Y-9671912D01*
X12645000Y-9973000D02*
X12645000Y-10173000D01*
X12545000Y-10073000D02*
X12745000Y-10073000D01*
X12986729Y-9964484D02*
X13110539Y-9964484D01*
X13110539Y-9964484D02*
X13043872Y-10040674D01*
X13043872Y-10040674D02*
X13072443Y-10040674D01*
X13072443Y-10040674D02*
X13091491Y-10050198D01*
X13091491Y-10050198D02*
X13101015Y-10059722D01*
X13101015Y-10059722D02*
X13110539Y-10078770D01*
X13110539Y-10078770D02*
X13110539Y-10126389D01*
X13110539Y-10126389D02*
X13101015Y-10145436D01*
X13101015Y-10145436D02*
X13091491Y-10154960D01*
X13091491Y-10154960D02*
X13072443Y-10164484D01*
X13072443Y-10164484D02*
X13015301Y-10164484D01*
X13015301Y-10164484D02*
X12996253Y-10154960D01*
X12996253Y-10154960D02*
X12986729Y-10145436D01*
X13196253Y-10145436D02*
X13205777Y-10154960D01*
X13205777Y-10154960D02*
X13196253Y-10164484D01*
X13196253Y-10164484D02*
X13186729Y-10154960D01*
X13186729Y-10154960D02*
X13196253Y-10145436D01*
X13196253Y-10145436D02*
X13196253Y-10164484D01*
X13281967Y-9983531D02*
X13291491Y-9974008D01*
X13291491Y-9974008D02*
X13310539Y-9964484D01*
X13310539Y-9964484D02*
X13358158Y-9964484D01*
X13358158Y-9964484D02*
X13377205Y-9974008D01*
X13377205Y-9974008D02*
X13386729Y-9983531D01*
X13386729Y-9983531D02*
X13396253Y-10002579D01*
X13396253Y-10002579D02*
X13396253Y-10021627D01*
X13396253Y-10021627D02*
X13386729Y-10050198D01*
X13386729Y-10050198D02*
X13272443Y-10164484D01*
X13272443Y-10164484D02*
X13396253Y-10164484D01*
X13520062Y-9964484D02*
X13539110Y-9964484D01*
X13539110Y-9964484D02*
X13558158Y-9974008D01*
X13558158Y-9974008D02*
X13567682Y-9983531D01*
X13567682Y-9983531D02*
X13577205Y-10002579D01*
X13577205Y-10002579D02*
X13586729Y-10040674D01*
X13586729Y-10040674D02*
X13586729Y-10088293D01*
X13586729Y-10088293D02*
X13577205Y-10126389D01*
X13577205Y-10126389D02*
X13567682Y-10145436D01*
X13567682Y-10145436D02*
X13558158Y-10154960D01*
X13558158Y-10154960D02*
X13539110Y-10164484D01*
X13539110Y-10164484D02*
X13520062Y-10164484D01*
X13520062Y-10164484D02*
X13501015Y-10154960D01*
X13501015Y-10154960D02*
X13491491Y-10145436D01*
X13491491Y-10145436D02*
X13481967Y-10126389D01*
X13481967Y-10126389D02*
X13472443Y-10088293D01*
X13472443Y-10088293D02*
X13472443Y-10040674D01*
X13472443Y-10040674D02*
X13481967Y-10002579D01*
X13481967Y-10002579D02*
X13491491Y-9983531D01*
X13491491Y-9983531D02*
X13501015Y-9974008D01*
X13501015Y-9974008D02*
X13520062Y-9964484D01*
X13710539Y-9964484D02*
X13729586Y-9964484D01*
X13729586Y-9964484D02*
X13748634Y-9974008D01*
X13748634Y-9974008D02*
X13758158Y-9983531D01*
X13758158Y-9983531D02*
X13767682Y-10002579D01*
X13767682Y-10002579D02*
X13777205Y-10040674D01*
X13777205Y-10040674D02*
X13777205Y-10088293D01*
X13777205Y-10088293D02*
X13767682Y-10126389D01*
X13767682Y-10126389D02*
X13758158Y-10145436D01*
X13758158Y-10145436D02*
X13748634Y-10154960D01*
X13748634Y-10154960D02*
X13729586Y-10164484D01*
X13729586Y-10164484D02*
X13710539Y-10164484D01*
X13710539Y-10164484D02*
X13691491Y-10154960D01*
X13691491Y-10154960D02*
X13681967Y-10145436D01*
X13681967Y-10145436D02*
X13672443Y-10126389D01*
X13672443Y-10126389D02*
X13662920Y-10088293D01*
X13662920Y-10088293D02*
X13662920Y-10040674D01*
X13662920Y-10040674D02*
X13672443Y-10002579D01*
X13672443Y-10002579D02*
X13681967Y-9983531D01*
X13681967Y-9983531D02*
X13691491Y-9974008D01*
X13691491Y-9974008D02*
X13710539Y-9964484D01*
X13862920Y-10164484D02*
X13862920Y-10031150D01*
X13862920Y-10050198D02*
X13872443Y-10040674D01*
X13872443Y-10040674D02*
X13891491Y-10031150D01*
X13891491Y-10031150D02*
X13920063Y-10031150D01*
X13920063Y-10031150D02*
X13939110Y-10040674D01*
X13939110Y-10040674D02*
X13948634Y-10059722D01*
X13948634Y-10059722D02*
X13948634Y-10164484D01*
X13948634Y-10059722D02*
X13958158Y-10040674D01*
X13958158Y-10040674D02*
X13977205Y-10031150D01*
X13977205Y-10031150D02*
X14005777Y-10031150D01*
X14005777Y-10031150D02*
X14024824Y-10040674D01*
X14024824Y-10040674D02*
X14034348Y-10059722D01*
X14034348Y-10059722D02*
X14034348Y-10164484D01*
X14129586Y-10164484D02*
X14129586Y-10031150D01*
X14129586Y-10050198D02*
X14139110Y-10040674D01*
X14139110Y-10040674D02*
X14158158Y-10031150D01*
X14158158Y-10031150D02*
X14186729Y-10031150D01*
X14186729Y-10031150D02*
X14205777Y-10040674D01*
X14205777Y-10040674D02*
X14215301Y-10059722D01*
X14215301Y-10059722D02*
X14215301Y-10164484D01*
X14215301Y-10059722D02*
X14224824Y-10040674D01*
X14224824Y-10040674D02*
X14243872Y-10031150D01*
X14243872Y-10031150D02*
X14272443Y-10031150D01*
X14272443Y-10031150D02*
X14291491Y-10040674D01*
X14291491Y-10040674D02*
X14301015Y-10059722D01*
X14301015Y-10059722D02*
X14301015Y-10164484D01*
X14691491Y-9954960D02*
X14520063Y-10212103D01*
X14948634Y-9964484D02*
X14967682Y-9964484D01*
X14967682Y-9964484D02*
X14986729Y-9974008D01*
X14986729Y-9974008D02*
X14996253Y-9983531D01*
X14996253Y-9983531D02*
X15005777Y-10002579D01*
X15005777Y-10002579D02*
X15015301Y-10040674D01*
X15015301Y-10040674D02*
X15015301Y-10088293D01*
X15015301Y-10088293D02*
X15005777Y-10126389D01*
X15005777Y-10126389D02*
X14996253Y-10145436D01*
X14996253Y-10145436D02*
X14986729Y-10154960D01*
X14986729Y-10154960D02*
X14967682Y-10164484D01*
X14967682Y-10164484D02*
X14948634Y-10164484D01*
X14948634Y-10164484D02*
X14929586Y-10154960D01*
X14929586Y-10154960D02*
X14920063Y-10145436D01*
X14920063Y-10145436D02*
X14910539Y-10126389D01*
X14910539Y-10126389D02*
X14901015Y-10088293D01*
X14901015Y-10088293D02*
X14901015Y-10040674D01*
X14901015Y-10040674D02*
X14910539Y-10002579D01*
X14910539Y-10002579D02*
X14920063Y-9983531D01*
X14920063Y-9983531D02*
X14929586Y-9974008D01*
X14929586Y-9974008D02*
X14948634Y-9964484D01*
X15101015Y-10145436D02*
X15110539Y-10154960D01*
X15110539Y-10154960D02*
X15101015Y-10164484D01*
X15101015Y-10164484D02*
X15091491Y-10154960D01*
X15091491Y-10154960D02*
X15101015Y-10145436D01*
X15101015Y-10145436D02*
X15101015Y-10164484D01*
X15301015Y-10164484D02*
X15186729Y-10164484D01*
X15243872Y-10164484D02*
X15243872Y-9964484D01*
X15243872Y-9964484D02*
X15224825Y-9993055D01*
X15224825Y-9993055D02*
X15205777Y-10012103D01*
X15205777Y-10012103D02*
X15186729Y-10021627D01*
X15377206Y-9983531D02*
X15386729Y-9974008D01*
X15386729Y-9974008D02*
X15405777Y-9964484D01*
X15405777Y-9964484D02*
X15453396Y-9964484D01*
X15453396Y-9964484D02*
X15472444Y-9974008D01*
X15472444Y-9974008D02*
X15481967Y-9983531D01*
X15481967Y-9983531D02*
X15491491Y-10002579D01*
X15491491Y-10002579D02*
X15491491Y-10021627D01*
X15491491Y-10021627D02*
X15481967Y-10050198D01*
X15481967Y-10050198D02*
X15367682Y-10164484D01*
X15367682Y-10164484D02*
X15491491Y-10164484D01*
X15662920Y-9964484D02*
X15624825Y-9964484D01*
X15624825Y-9964484D02*
X15605777Y-9974008D01*
X15605777Y-9974008D02*
X15596253Y-9983531D01*
X15596253Y-9983531D02*
X15577206Y-10012103D01*
X15577206Y-10012103D02*
X15567682Y-10050198D01*
X15567682Y-10050198D02*
X15567682Y-10126389D01*
X15567682Y-10126389D02*
X15577206Y-10145436D01*
X15577206Y-10145436D02*
X15586729Y-10154960D01*
X15586729Y-10154960D02*
X15605777Y-10164484D01*
X15605777Y-10164484D02*
X15643872Y-10164484D01*
X15643872Y-10164484D02*
X15662920Y-10154960D01*
X15662920Y-10154960D02*
X15672444Y-10145436D01*
X15672444Y-10145436D02*
X15681967Y-10126389D01*
X15681967Y-10126389D02*
X15681967Y-10078770D01*
X15681967Y-10078770D02*
X15672444Y-10059722D01*
X15672444Y-10059722D02*
X15662920Y-10050198D01*
X15662920Y-10050198D02*
X15643872Y-10040674D01*
X15643872Y-10040674D02*
X15605777Y-10040674D01*
X15605777Y-10040674D02*
X15586729Y-10050198D01*
X15586729Y-10050198D02*
X15577206Y-10059722D01*
X15577206Y-10059722D02*
X15567682Y-10078770D01*
X15805777Y-9964484D02*
X15824825Y-9964484D01*
X15824825Y-9964484D02*
X15843872Y-9974008D01*
X15843872Y-9974008D02*
X15853396Y-9983531D01*
X15853396Y-9983531D02*
X15862920Y-10002579D01*
X15862920Y-10002579D02*
X15872444Y-10040674D01*
X15872444Y-10040674D02*
X15872444Y-10088293D01*
X15872444Y-10088293D02*
X15862920Y-10126389D01*
X15862920Y-10126389D02*
X15853396Y-10145436D01*
X15853396Y-10145436D02*
X15843872Y-10154960D01*
X15843872Y-10154960D02*
X15824825Y-10164484D01*
X15824825Y-10164484D02*
X15805777Y-10164484D01*
X15805777Y-10164484D02*
X15786729Y-10154960D01*
X15786729Y-10154960D02*
X15777206Y-10145436D01*
X15777206Y-10145436D02*
X15767682Y-10126389D01*
X15767682Y-10126389D02*
X15758158Y-10088293D01*
X15758158Y-10088293D02*
X15758158Y-10040674D01*
X15758158Y-10040674D02*
X15767682Y-10002579D01*
X15767682Y-10002579D02*
X15777206Y-9983531D01*
X15777206Y-9983531D02*
X15786729Y-9974008D01*
X15786729Y-9974008D02*
X15805777Y-9964484D01*
X15948634Y-9964484D02*
X15948634Y-10002579D01*
X16024825Y-9964484D02*
X16024825Y-10002579D01*
X16320063Y-10240674D02*
X16310539Y-10231150D01*
X16310539Y-10231150D02*
X16291491Y-10202579D01*
X16291491Y-10202579D02*
X16281968Y-10183531D01*
X16281968Y-10183531D02*
X16272444Y-10154960D01*
X16272444Y-10154960D02*
X16262920Y-10107341D01*
X16262920Y-10107341D02*
X16262920Y-10069246D01*
X16262920Y-10069246D02*
X16272444Y-10021627D01*
X16272444Y-10021627D02*
X16281968Y-9993055D01*
X16281968Y-9993055D02*
X16291491Y-9974008D01*
X16291491Y-9974008D02*
X16310539Y-9945436D01*
X16310539Y-9945436D02*
X16320063Y-9935912D01*
X16481968Y-10031150D02*
X16481968Y-10164484D01*
X16434348Y-9954960D02*
X16386729Y-10097817D01*
X16386729Y-10097817D02*
X16510539Y-10097817D01*
X16739110Y-10164484D02*
X16739110Y-9964484D01*
X16824825Y-10164484D02*
X16824825Y-10059722D01*
X16824825Y-10059722D02*
X16815301Y-10040674D01*
X16815301Y-10040674D02*
X16796253Y-10031150D01*
X16796253Y-10031150D02*
X16767682Y-10031150D01*
X16767682Y-10031150D02*
X16748634Y-10040674D01*
X16748634Y-10040674D02*
X16739110Y-10050198D01*
X16948634Y-10164484D02*
X16929587Y-10154960D01*
X16929587Y-10154960D02*
X16920063Y-10145436D01*
X16920063Y-10145436D02*
X16910539Y-10126389D01*
X16910539Y-10126389D02*
X16910539Y-10069246D01*
X16910539Y-10069246D02*
X16920063Y-10050198D01*
X16920063Y-10050198D02*
X16929587Y-10040674D01*
X16929587Y-10040674D02*
X16948634Y-10031150D01*
X16948634Y-10031150D02*
X16977206Y-10031150D01*
X16977206Y-10031150D02*
X16996253Y-10040674D01*
X16996253Y-10040674D02*
X17005777Y-10050198D01*
X17005777Y-10050198D02*
X17015301Y-10069246D01*
X17015301Y-10069246D02*
X17015301Y-10126389D01*
X17015301Y-10126389D02*
X17005777Y-10145436D01*
X17005777Y-10145436D02*
X16996253Y-10154960D01*
X16996253Y-10154960D02*
X16977206Y-10164484D01*
X16977206Y-10164484D02*
X16948634Y-10164484D01*
X17129587Y-10164484D02*
X17110539Y-10154960D01*
X17110539Y-10154960D02*
X17101015Y-10135912D01*
X17101015Y-10135912D02*
X17101015Y-9964484D01*
X17281968Y-10154960D02*
X17262920Y-10164484D01*
X17262920Y-10164484D02*
X17224825Y-10164484D01*
X17224825Y-10164484D02*
X17205777Y-10154960D01*
X17205777Y-10154960D02*
X17196253Y-10135912D01*
X17196253Y-10135912D02*
X17196253Y-10059722D01*
X17196253Y-10059722D02*
X17205777Y-10040674D01*
X17205777Y-10040674D02*
X17224825Y-10031150D01*
X17224825Y-10031150D02*
X17262920Y-10031150D01*
X17262920Y-10031150D02*
X17281968Y-10040674D01*
X17281968Y-10040674D02*
X17291492Y-10059722D01*
X17291492Y-10059722D02*
X17291492Y-10078770D01*
X17291492Y-10078770D02*
X17196253Y-10097817D01*
X17367682Y-10154960D02*
X17386730Y-10164484D01*
X17386730Y-10164484D02*
X17424825Y-10164484D01*
X17424825Y-10164484D02*
X17443873Y-10154960D01*
X17443873Y-10154960D02*
X17453396Y-10135912D01*
X17453396Y-10135912D02*
X17453396Y-10126389D01*
X17453396Y-10126389D02*
X17443873Y-10107341D01*
X17443873Y-10107341D02*
X17424825Y-10097817D01*
X17424825Y-10097817D02*
X17396253Y-10097817D01*
X17396253Y-10097817D02*
X17377206Y-10088293D01*
X17377206Y-10088293D02*
X17367682Y-10069246D01*
X17367682Y-10069246D02*
X17367682Y-10059722D01*
X17367682Y-10059722D02*
X17377206Y-10040674D01*
X17377206Y-10040674D02*
X17396253Y-10031150D01*
X17396253Y-10031150D02*
X17424825Y-10031150D01*
X17424825Y-10031150D02*
X17443873Y-10040674D01*
X17520063Y-10240674D02*
X17529587Y-10231150D01*
X17529587Y-10231150D02*
X17548634Y-10202579D01*
X17548634Y-10202579D02*
X17558158Y-10183531D01*
X17558158Y-10183531D02*
X17567682Y-10154960D01*
X17567682Y-10154960D02*
X17577206Y-10107341D01*
X17577206Y-10107341D02*
X17577206Y-10069246D01*
X17577206Y-10069246D02*
X17567682Y-10021627D01*
X17567682Y-10021627D02*
X17558158Y-9993055D01*
X17558158Y-9993055D02*
X17548634Y-9974008D01*
X17548634Y-9974008D02*
X17529587Y-9945436D01*
X17529587Y-9945436D02*
X17520063Y-9935912D01*
M02*
