%TF.GenerationSoftware,KiCad,Pcbnew,7.0.7*%
%TF.CreationDate,2024-03-28T13:05:56+05:30*%
%TF.ProjectId,korby,6b6f7262-792e-46b6-9963-61645f706362,rev?*%
%TF.SameCoordinates,Original*%
%TF.FileFunction,Legend,Bot*%
%TF.FilePolarity,Positive*%
%FSLAX46Y46*%
G04 Gerber Fmt 4.6, Leading zero omitted, Abs format (unit mm)*
G04 Created by KiCad (PCBNEW 7.0.7) date 2024-03-28 13:05:56*
%MOMM*%
%LPD*%
G01*
G04 APERTURE LIST*
%ADD10C,0.200000*%
%ADD11C,0.099633*%
%ADD12C,0.000000*%
%ADD13C,0.100000*%
%ADD14C,0.120000*%
G04 APERTURE END LIST*
D10*
X136000000Y-83750000D02*
G75*
G03*
X136000000Y-83750000I-3250000J0D01*
G01*
D11*
X145103950Y-80874022D02*
X145140672Y-80924028D01*
X145201408Y-81032988D02*
X145224835Y-81090623D01*
D12*
G36*
X139124462Y-80910965D02*
G01*
X139136922Y-80911859D01*
X139149201Y-80913334D01*
X139161285Y-80915374D01*
X139173158Y-80917967D01*
X139184804Y-80921098D01*
X139196207Y-80924754D01*
X139207353Y-80928921D01*
X139218226Y-80933586D01*
X139228810Y-80938734D01*
X139239090Y-80944352D01*
X139249050Y-80950427D01*
X139258675Y-80956943D01*
X139267950Y-80963889D01*
X139276859Y-80971250D01*
X139285386Y-80979012D01*
X139293516Y-80987162D01*
X139301234Y-80995685D01*
X139308524Y-81004569D01*
X139315370Y-81013800D01*
X139321758Y-81023363D01*
X139327671Y-81033245D01*
X139333095Y-81043432D01*
X139338013Y-81053911D01*
X139342411Y-81064668D01*
X139346273Y-81075689D01*
X139349583Y-81086961D01*
X139352325Y-81098469D01*
X139354486Y-81110200D01*
X139356048Y-81122141D01*
X139356996Y-81134277D01*
X139357316Y-81146595D01*
X139357316Y-81325139D01*
X139491222Y-81325139D01*
X139491222Y-81435134D01*
X139357316Y-81435134D01*
X139357316Y-82122204D01*
X139215447Y-82122204D01*
X139215447Y-81435134D01*
X139006611Y-81435134D01*
X139006611Y-81325139D01*
X139215447Y-81325139D01*
X139215447Y-81154564D01*
X139215321Y-81147892D01*
X139214948Y-81141329D01*
X139214331Y-81134882D01*
X139213476Y-81128558D01*
X139212385Y-81122363D01*
X139211064Y-81116305D01*
X139209518Y-81110390D01*
X139207749Y-81104624D01*
X139205764Y-81099015D01*
X139203566Y-81093569D01*
X139201159Y-81088293D01*
X139198549Y-81083194D01*
X139195738Y-81078277D01*
X139192733Y-81073551D01*
X139189537Y-81069022D01*
X139186154Y-81064696D01*
X139182589Y-81060580D01*
X139178846Y-81056681D01*
X139174931Y-81053006D01*
X139170846Y-81049561D01*
X139166596Y-81046353D01*
X139162187Y-81043388D01*
X139157622Y-81040675D01*
X139152905Y-81038218D01*
X139148041Y-81036025D01*
X139143035Y-81034103D01*
X139137891Y-81032458D01*
X139132612Y-81031097D01*
X139127204Y-81030027D01*
X139121672Y-81029254D01*
X139116018Y-81028786D01*
X139110248Y-81028628D01*
X139106375Y-81028688D01*
X139102533Y-81028868D01*
X139094944Y-81029578D01*
X139087495Y-81030740D01*
X139080201Y-81032339D01*
X139073075Y-81034359D01*
X139066131Y-81036783D01*
X139059384Y-81039594D01*
X139052847Y-81042777D01*
X139046535Y-81046314D01*
X139040461Y-81050190D01*
X139034640Y-81054389D01*
X139029085Y-81058893D01*
X139023811Y-81063687D01*
X139018831Y-81068754D01*
X139014160Y-81074078D01*
X139009812Y-81079642D01*
X138930094Y-80993557D01*
X138935501Y-80987148D01*
X138940961Y-80981068D01*
X138946471Y-80975307D01*
X138952026Y-80969857D01*
X138963258Y-80959862D01*
X138974631Y-80951015D01*
X138986117Y-80943251D01*
X138997686Y-80936506D01*
X139009311Y-80930713D01*
X139020965Y-80925808D01*
X139032619Y-80921724D01*
X139044244Y-80918397D01*
X139055813Y-80915762D01*
X139067299Y-80913752D01*
X139078672Y-80912303D01*
X139089904Y-80911348D01*
X139100969Y-80910824D01*
X139111836Y-80910663D01*
X139124462Y-80910965D01*
G37*
D11*
X144921552Y-80719213D02*
X144947073Y-80733742D01*
X145260806Y-81383980D02*
X145256088Y-81411826D01*
X145084128Y-80850427D02*
X145103950Y-80874022D01*
X144380600Y-80626378D02*
X144444203Y-80629079D01*
D12*
G36*
X137479471Y-81745198D02*
G01*
X137478237Y-81766419D01*
X137476193Y-81787310D01*
X137473350Y-81807847D01*
X137469719Y-81828003D01*
X137465311Y-81847756D01*
X137460136Y-81867080D01*
X137454206Y-81885949D01*
X137447530Y-81904340D01*
X137440121Y-81922228D01*
X137431988Y-81939587D01*
X137423143Y-81956393D01*
X137413596Y-81972621D01*
X137403358Y-81988246D01*
X137392439Y-82003244D01*
X137380852Y-82017589D01*
X137368606Y-82031257D01*
X137355712Y-82044223D01*
X137342181Y-82056463D01*
X137328024Y-82067950D01*
X137313251Y-82078662D01*
X137297874Y-82088572D01*
X137281904Y-82097656D01*
X137265350Y-82105889D01*
X137248224Y-82113246D01*
X137230536Y-82119703D01*
X137212298Y-82125235D01*
X137193520Y-82129816D01*
X137174213Y-82133423D01*
X137154388Y-82136030D01*
X137134055Y-82137612D01*
X137113226Y-82138145D01*
X137092550Y-82137570D01*
X137072369Y-82135863D01*
X137052692Y-82133049D01*
X137033529Y-82129153D01*
X137014888Y-82124202D01*
X136996780Y-82118222D01*
X136979212Y-82111237D01*
X136962196Y-82103274D01*
X136945739Y-82094358D01*
X136929852Y-82084515D01*
X136914543Y-82073771D01*
X136899822Y-82062151D01*
X136885698Y-82049681D01*
X136872181Y-82036386D01*
X136859279Y-82022293D01*
X136847003Y-82007427D01*
X136840626Y-82122204D01*
X136714711Y-82122204D01*
X136714711Y-81809755D01*
X136851792Y-81809755D01*
X136858209Y-81831469D01*
X136866057Y-81852323D01*
X136875274Y-81872244D01*
X136885796Y-81891155D01*
X136897560Y-81908984D01*
X136910504Y-81925653D01*
X136924563Y-81941090D01*
X136931992Y-81948323D01*
X136939676Y-81955219D01*
X136947608Y-81961770D01*
X136955779Y-81967966D01*
X136964182Y-81973798D01*
X136972809Y-81979255D01*
X136981651Y-81984330D01*
X136990702Y-81989013D01*
X136999953Y-81993294D01*
X137009397Y-81997164D01*
X137019025Y-82000614D01*
X137028829Y-82003634D01*
X137038802Y-82006215D01*
X137048936Y-82008348D01*
X137059223Y-82010023D01*
X137069655Y-82011231D01*
X137080224Y-82011963D01*
X137090922Y-82012209D01*
X137105384Y-82011838D01*
X137119475Y-82010737D01*
X137133191Y-82008923D01*
X137146525Y-82006414D01*
X137159471Y-82003227D01*
X137172025Y-81999378D01*
X137184179Y-81994886D01*
X137195927Y-81989766D01*
X137207265Y-81984038D01*
X137218187Y-81977717D01*
X137228685Y-81970821D01*
X137238755Y-81963367D01*
X137248391Y-81955373D01*
X137257587Y-81946855D01*
X137266337Y-81937831D01*
X137274635Y-81928318D01*
X137282475Y-81918334D01*
X137289852Y-81907895D01*
X137296760Y-81897018D01*
X137303192Y-81885722D01*
X137309143Y-81874023D01*
X137314608Y-81861938D01*
X137319580Y-81849485D01*
X137324053Y-81836681D01*
X137331481Y-81810088D01*
X137336844Y-81782297D01*
X137340096Y-81753446D01*
X137341191Y-81723672D01*
X137340916Y-81708674D01*
X137340096Y-81693881D01*
X137338737Y-81679309D01*
X137336844Y-81664978D01*
X137334423Y-81650905D01*
X137331481Y-81637108D01*
X137328022Y-81623605D01*
X137324053Y-81610413D01*
X137319580Y-81597550D01*
X137314608Y-81585035D01*
X137309143Y-81572884D01*
X137303192Y-81561116D01*
X137296760Y-81549749D01*
X137289852Y-81538799D01*
X137282475Y-81528286D01*
X137274635Y-81518227D01*
X137266337Y-81508639D01*
X137257587Y-81499541D01*
X137248391Y-81490951D01*
X137238755Y-81482885D01*
X137228685Y-81475362D01*
X137218187Y-81468400D01*
X137207265Y-81462017D01*
X137195927Y-81456230D01*
X137184179Y-81451057D01*
X137172025Y-81446516D01*
X137159471Y-81442625D01*
X137146525Y-81439401D01*
X137133191Y-81436863D01*
X137119475Y-81435028D01*
X137105384Y-81433914D01*
X137090922Y-81433538D01*
X137080224Y-81433789D01*
X137069655Y-81434534D01*
X137059223Y-81435764D01*
X137048936Y-81437468D01*
X137038802Y-81439637D01*
X137028829Y-81442260D01*
X137019025Y-81445329D01*
X137009397Y-81448832D01*
X136999953Y-81452761D01*
X136990702Y-81457104D01*
X136981651Y-81461853D01*
X136972809Y-81466997D01*
X136964182Y-81472526D01*
X136955779Y-81478431D01*
X136947608Y-81484701D01*
X136939676Y-81491326D01*
X136931992Y-81498298D01*
X136924563Y-81505604D01*
X136917398Y-81513237D01*
X136910504Y-81521185D01*
X136897560Y-81537990D01*
X136885796Y-81555939D01*
X136875274Y-81574952D01*
X136866057Y-81594951D01*
X136858209Y-81615856D01*
X136851792Y-81637588D01*
X136851792Y-81809755D01*
X136714711Y-81809755D01*
X136714711Y-80926605D01*
X136851792Y-80926605D01*
X136851792Y-81433538D01*
X136863783Y-81419532D01*
X136876431Y-81406227D01*
X136889718Y-81393650D01*
X136903628Y-81381829D01*
X136918145Y-81370793D01*
X136933253Y-81360570D01*
X136948935Y-81351188D01*
X136965175Y-81342674D01*
X136981957Y-81335057D01*
X136999264Y-81328364D01*
X137017081Y-81322624D01*
X137035389Y-81317865D01*
X137054175Y-81314115D01*
X137073420Y-81311402D01*
X137093109Y-81309753D01*
X137113226Y-81309197D01*
X137134055Y-81309730D01*
X137154388Y-81311313D01*
X137174213Y-81313920D01*
X137193520Y-81317526D01*
X137212298Y-81322108D01*
X137230536Y-81327639D01*
X137248224Y-81334096D01*
X137265350Y-81341454D01*
X137281904Y-81349687D01*
X137297874Y-81358771D01*
X137313251Y-81368681D01*
X137328024Y-81379392D01*
X137342181Y-81390880D01*
X137355712Y-81403119D01*
X137368606Y-81416085D01*
X137380852Y-81429753D01*
X137392439Y-81444099D01*
X137403358Y-81459097D01*
X137413596Y-81474722D01*
X137423143Y-81490950D01*
X137431988Y-81507756D01*
X137440121Y-81525115D01*
X137447530Y-81543003D01*
X137454206Y-81561394D01*
X137460136Y-81580264D01*
X137465311Y-81599588D01*
X137469719Y-81619340D01*
X137473350Y-81639497D01*
X137476193Y-81660034D01*
X137478237Y-81680925D01*
X137479471Y-81702146D01*
X137479885Y-81723672D01*
X137479471Y-81745198D01*
G37*
D11*
X145263825Y-81268238D02*
X145265374Y-81297662D01*
D10*
X154000000Y-74250000D02*
G75*
G03*
X154000000Y-74250000I-3250000J0D01*
G01*
D11*
X145260800Y-81238626D02*
X145263825Y-81268238D01*
D12*
G36*
X140339476Y-81894244D02*
G01*
X140339179Y-81907427D01*
X140338295Y-81920364D01*
X140336837Y-81933045D01*
X140334815Y-81945459D01*
X140332241Y-81957593D01*
X140329125Y-81969437D01*
X140325481Y-81980979D01*
X140321318Y-81992208D01*
X140316648Y-82003113D01*
X140311484Y-82013681D01*
X140305835Y-82023902D01*
X140299714Y-82033764D01*
X140293131Y-82043257D01*
X140286099Y-82052367D01*
X140278628Y-82061085D01*
X140270730Y-82069399D01*
X140262417Y-82077296D01*
X140253700Y-82084767D01*
X140244589Y-82091800D01*
X140235097Y-82098382D01*
X140225235Y-82104504D01*
X140215014Y-82110152D01*
X140204446Y-82115317D01*
X140193542Y-82119987D01*
X140182314Y-82124150D01*
X140170772Y-82127794D01*
X140158929Y-82130910D01*
X140146795Y-82133484D01*
X140134382Y-82135506D01*
X140121701Y-82136964D01*
X140108764Y-82137848D01*
X140095583Y-82138145D01*
X140076142Y-82137535D01*
X140056694Y-82135735D01*
X140037268Y-82132786D01*
X140017897Y-82128730D01*
X139998609Y-82123609D01*
X139979435Y-82117465D01*
X139960406Y-82110341D01*
X139941552Y-82102278D01*
X139922904Y-82093318D01*
X139904492Y-82083503D01*
X139886346Y-82072876D01*
X139868497Y-82061478D01*
X139850976Y-82049351D01*
X139833812Y-82036538D01*
X139817036Y-82023080D01*
X139800678Y-82009020D01*
X139792688Y-82122204D01*
X139668360Y-82122204D01*
X139668360Y-81891056D01*
X139807055Y-81891056D01*
X139821270Y-81903713D01*
X139835804Y-81915942D01*
X139850642Y-81927691D01*
X139865767Y-81938905D01*
X139881162Y-81949530D01*
X139896812Y-81959513D01*
X139912700Y-81968800D01*
X139928809Y-81977338D01*
X139945124Y-81985072D01*
X139961628Y-81991949D01*
X139978304Y-81997916D01*
X139995136Y-82002918D01*
X140012108Y-82006902D01*
X140029204Y-82009814D01*
X140046407Y-82011601D01*
X140063700Y-82012209D01*
X140071094Y-82012065D01*
X140078324Y-82011635D01*
X140085385Y-82010925D01*
X140092274Y-82009939D01*
X140098985Y-82008680D01*
X140105514Y-82007154D01*
X140111856Y-82005365D01*
X140118007Y-82003317D01*
X140123961Y-82001014D01*
X140129714Y-81998461D01*
X140135262Y-81995662D01*
X140140600Y-81992622D01*
X140145722Y-81989345D01*
X140150625Y-81985835D01*
X140155304Y-81982097D01*
X140159754Y-81978135D01*
X140163971Y-81973953D01*
X140167949Y-81969557D01*
X140171684Y-81964949D01*
X140175172Y-81960136D01*
X140178408Y-81955120D01*
X140181386Y-81949907D01*
X140184104Y-81944500D01*
X140186555Y-81938905D01*
X140188735Y-81933125D01*
X140190639Y-81927165D01*
X140192264Y-81921029D01*
X140193603Y-81914722D01*
X140194653Y-81908248D01*
X140195409Y-81901611D01*
X140195865Y-81894816D01*
X140196019Y-81887868D01*
X140195325Y-81873357D01*
X140193161Y-81859210D01*
X140189399Y-81845568D01*
X140183913Y-81832571D01*
X140180485Y-81826357D01*
X140176578Y-81820358D01*
X140172178Y-81814589D01*
X140167268Y-81809070D01*
X140161832Y-81803816D01*
X140155856Y-81798846D01*
X140149322Y-81794178D01*
X140142216Y-81789828D01*
X140134521Y-81785814D01*
X140126222Y-81782155D01*
X140117303Y-81778866D01*
X140107748Y-81775966D01*
X140097541Y-81773473D01*
X140086667Y-81771403D01*
X140075110Y-81769775D01*
X140062855Y-81768606D01*
X140049884Y-81767913D01*
X140036184Y-81767714D01*
X140006528Y-81768868D01*
X139973762Y-81772207D01*
X139937759Y-81777872D01*
X139807055Y-81800190D01*
X139807055Y-81891056D01*
X139668360Y-81891056D01*
X139668360Y-81612082D01*
X139668787Y-81593120D01*
X139670052Y-81574791D01*
X139672137Y-81557094D01*
X139675020Y-81540025D01*
X139678682Y-81523584D01*
X139683103Y-81507767D01*
X139688263Y-81492574D01*
X139694140Y-81478001D01*
X139700716Y-81464047D01*
X139707970Y-81450710D01*
X139715882Y-81437987D01*
X139724432Y-81425877D01*
X139733599Y-81414378D01*
X139743364Y-81403487D01*
X139753706Y-81393203D01*
X139764606Y-81383524D01*
X139776042Y-81374447D01*
X139787996Y-81365970D01*
X139800446Y-81358092D01*
X139813373Y-81350810D01*
X139826757Y-81344122D01*
X139840577Y-81338027D01*
X139854813Y-81332522D01*
X139869446Y-81327605D01*
X139899818Y-81319527D01*
X139931534Y-81313777D01*
X139964431Y-81310340D01*
X139998348Y-81309197D01*
X140026203Y-81309845D01*
X140039725Y-81310649D01*
X140052977Y-81311766D01*
X140065958Y-81313193D01*
X140078671Y-81314924D01*
X140091114Y-81316956D01*
X140103288Y-81319285D01*
X140115194Y-81321905D01*
X140126831Y-81324813D01*
X140138200Y-81328004D01*
X140149302Y-81331474D01*
X140160136Y-81335218D01*
X140170704Y-81339233D01*
X140181004Y-81343512D01*
X140191038Y-81348053D01*
X140200806Y-81352851D01*
X140210307Y-81357902D01*
X140219544Y-81363200D01*
X140228515Y-81368743D01*
X140237221Y-81374524D01*
X140245662Y-81380541D01*
X140253839Y-81386788D01*
X140261752Y-81393261D01*
X140269401Y-81399957D01*
X140276787Y-81406870D01*
X140283909Y-81413995D01*
X140290769Y-81421330D01*
X140303700Y-81436608D01*
X140315584Y-81452668D01*
X140218323Y-81538753D01*
X140209079Y-81525695D01*
X140199276Y-81513430D01*
X140188918Y-81501963D01*
X140178006Y-81491302D01*
X140166542Y-81481453D01*
X140154530Y-81472425D01*
X140141971Y-81464222D01*
X140128868Y-81456854D01*
X140115222Y-81450326D01*
X140101037Y-81444646D01*
X140086315Y-81439820D01*
X140071058Y-81435856D01*
X140055268Y-81432761D01*
X140038947Y-81430541D01*
X140022099Y-81429204D01*
X140004725Y-81428757D01*
X139984641Y-81429378D01*
X139965109Y-81431254D01*
X139946230Y-81434411D01*
X139937068Y-81436476D01*
X139928108Y-81438870D01*
X139919363Y-81441595D01*
X139910845Y-81444655D01*
X139902568Y-81448053D01*
X139894544Y-81451791D01*
X139886787Y-81455872D01*
X139879308Y-81460299D01*
X139872122Y-81465076D01*
X139865240Y-81470204D01*
X139858676Y-81475687D01*
X139852442Y-81481529D01*
X139846552Y-81487731D01*
X139841017Y-81494296D01*
X139835852Y-81501229D01*
X139831068Y-81508531D01*
X139826679Y-81516205D01*
X139822697Y-81524255D01*
X139819136Y-81532683D01*
X139816008Y-81541492D01*
X139813326Y-81550686D01*
X139811103Y-81560266D01*
X139809351Y-81570237D01*
X139808084Y-81580600D01*
X139807314Y-81591359D01*
X139807055Y-81602517D01*
X139807055Y-81696571D01*
X139952126Y-81672658D01*
X139977780Y-81668824D01*
X140002445Y-81665970D01*
X140026135Y-81664067D01*
X140048859Y-81663088D01*
X140070629Y-81663003D01*
X140091457Y-81663783D01*
X140111354Y-81665401D01*
X140130331Y-81667827D01*
X140148400Y-81671033D01*
X140165572Y-81674991D01*
X140181859Y-81679671D01*
X140197271Y-81685045D01*
X140211821Y-81691085D01*
X140225519Y-81697762D01*
X140238378Y-81705047D01*
X140250407Y-81712912D01*
X140261620Y-81721327D01*
X140272026Y-81730266D01*
X140281638Y-81739698D01*
X140290467Y-81749595D01*
X140298525Y-81759929D01*
X140305821Y-81770672D01*
X140312369Y-81781793D01*
X140318180Y-81793266D01*
X140323264Y-81805061D01*
X140327633Y-81817149D01*
X140331299Y-81829503D01*
X140334273Y-81842092D01*
X140336566Y-81854890D01*
X140338190Y-81867867D01*
X140339156Y-81880995D01*
X140339322Y-81887868D01*
X140339476Y-81894244D01*
G37*
D11*
X145041749Y-80806461D02*
X145063383Y-80827879D01*
X144519903Y-80635337D02*
X144601662Y-80644442D01*
X144683444Y-80655683D02*
X144759211Y-80668349D01*
X145173256Y-80977236D02*
X145201408Y-81032988D01*
X144947073Y-80733742D02*
X144971890Y-80749814D01*
X145222126Y-81523391D02*
X145441619Y-80727223D01*
D12*
G36*
X138344787Y-81660115D02*
G01*
X138346879Y-81681449D01*
X138348143Y-81703174D01*
X138348566Y-81725265D01*
X138348147Y-81747348D01*
X138346897Y-81769045D01*
X138344825Y-81790337D01*
X138341940Y-81811202D01*
X138338252Y-81831621D01*
X138333769Y-81851571D01*
X138328502Y-81871032D01*
X138322460Y-81889984D01*
X138315652Y-81908407D01*
X138308087Y-81926278D01*
X138299775Y-81943578D01*
X138290725Y-81960285D01*
X138280947Y-81976379D01*
X138270449Y-81991840D01*
X138259241Y-82006647D01*
X138247333Y-82020778D01*
X138234733Y-82034213D01*
X138221452Y-82046932D01*
X138207498Y-82058913D01*
X138192881Y-82070136D01*
X138177611Y-82080581D01*
X138161695Y-82090226D01*
X138145145Y-82099051D01*
X138127969Y-82107035D01*
X138110176Y-82114157D01*
X138091777Y-82120397D01*
X138072779Y-82125733D01*
X138053193Y-82130146D01*
X138033029Y-82133615D01*
X138012294Y-82136118D01*
X137990999Y-82137635D01*
X137969153Y-82138145D01*
X137955228Y-82137945D01*
X137941545Y-82137346D01*
X137928106Y-82136353D01*
X137914911Y-82134969D01*
X137901960Y-82133197D01*
X137889252Y-82131041D01*
X137876790Y-82128505D01*
X137864572Y-82125591D01*
X137852599Y-82122304D01*
X137840872Y-82118647D01*
X137829390Y-82114623D01*
X137818154Y-82110236D01*
X137807165Y-82105489D01*
X137796422Y-82100386D01*
X137785926Y-82094931D01*
X137775677Y-82089126D01*
X137765675Y-82082976D01*
X137755921Y-82076484D01*
X137746416Y-82069653D01*
X137737158Y-82062487D01*
X137728149Y-82054989D01*
X137719389Y-82047164D01*
X137710878Y-82039013D01*
X137702617Y-82030542D01*
X137694605Y-82021753D01*
X137686844Y-82012650D01*
X137679332Y-82003236D01*
X137672072Y-81993516D01*
X137665062Y-81983491D01*
X137658304Y-81973167D01*
X137645542Y-81951632D01*
X137744390Y-81883084D01*
X137756317Y-81900858D01*
X137768226Y-81917146D01*
X137780172Y-81931997D01*
X137792212Y-81945455D01*
X137804400Y-81957568D01*
X137816795Y-81968383D01*
X137829451Y-81977946D01*
X137842424Y-81986304D01*
X137855772Y-81993504D01*
X137869550Y-81999593D01*
X137883814Y-82004616D01*
X137898620Y-82008622D01*
X137914025Y-82011656D01*
X137930084Y-82013765D01*
X137946854Y-82014997D01*
X137964391Y-82015397D01*
X137978102Y-82015109D01*
X137991438Y-82014251D01*
X138004398Y-82012833D01*
X138016982Y-82010863D01*
X138029186Y-82008352D01*
X138041012Y-82005309D01*
X138052457Y-82001742D01*
X138063520Y-81997662D01*
X138074200Y-81993077D01*
X138084496Y-81987998D01*
X138094406Y-81982432D01*
X138103930Y-81976391D01*
X138113067Y-81969882D01*
X138121815Y-81962915D01*
X138130172Y-81955500D01*
X138138139Y-81947647D01*
X138145713Y-81939363D01*
X138152894Y-81930659D01*
X138159680Y-81921544D01*
X138166071Y-81912028D01*
X138172064Y-81902119D01*
X138177660Y-81891827D01*
X138182856Y-81881162D01*
X138187651Y-81870132D01*
X138192045Y-81858747D01*
X138196036Y-81847017D01*
X138202805Y-81822557D01*
X138207949Y-81796827D01*
X138211458Y-81769901D01*
X137608897Y-81769901D01*
X137608364Y-81763926D01*
X137607964Y-81757970D01*
X137607677Y-81752051D01*
X137607484Y-81746188D01*
X137607308Y-81734706D01*
X137607282Y-81723672D01*
X137607674Y-81701164D01*
X137608842Y-81679086D01*
X137610561Y-81659905D01*
X137734812Y-81659905D01*
X138208283Y-81659905D01*
X138203672Y-81634735D01*
X138197613Y-81610681D01*
X138190115Y-81587813D01*
X138185829Y-81576845D01*
X138181187Y-81566201D01*
X138176191Y-81555888D01*
X138170840Y-81545915D01*
X138165137Y-81536292D01*
X138159082Y-81527026D01*
X138152678Y-81518127D01*
X138145923Y-81509604D01*
X138138821Y-81501464D01*
X138131373Y-81493717D01*
X138123578Y-81486372D01*
X138115439Y-81479438D01*
X138106957Y-81472922D01*
X138098133Y-81466835D01*
X138088967Y-81461184D01*
X138079462Y-81455979D01*
X138069618Y-81451228D01*
X138059437Y-81446939D01*
X138048920Y-81443123D01*
X138038067Y-81439787D01*
X138026880Y-81436940D01*
X138015361Y-81434591D01*
X138003510Y-81432749D01*
X137991328Y-81431422D01*
X137978817Y-81430620D01*
X137965978Y-81430350D01*
X137953433Y-81430610D01*
X137941207Y-81431387D01*
X137929304Y-81432672D01*
X137917726Y-81434460D01*
X137906474Y-81436743D01*
X137895553Y-81439513D01*
X137884962Y-81442765D01*
X137874706Y-81446491D01*
X137864787Y-81450684D01*
X137855206Y-81455337D01*
X137845966Y-81460442D01*
X137837069Y-81465994D01*
X137828518Y-81471985D01*
X137820315Y-81478408D01*
X137812463Y-81485256D01*
X137804963Y-81492522D01*
X137797817Y-81500199D01*
X137791030Y-81508280D01*
X137784601Y-81516757D01*
X137778535Y-81525625D01*
X137772833Y-81534876D01*
X137767497Y-81544503D01*
X137762530Y-81554498D01*
X137757935Y-81564856D01*
X137753713Y-81575568D01*
X137749867Y-81586629D01*
X137743311Y-81609765D01*
X137738286Y-81634209D01*
X137734812Y-81659905D01*
X137610561Y-81659905D01*
X137610780Y-81657456D01*
X137613481Y-81636293D01*
X137616938Y-81615616D01*
X137621143Y-81595443D01*
X137626088Y-81575794D01*
X137631767Y-81556686D01*
X137638172Y-81538139D01*
X137645297Y-81520170D01*
X137653132Y-81502800D01*
X137661673Y-81486046D01*
X137670910Y-81469927D01*
X137680837Y-81454462D01*
X137691446Y-81439670D01*
X137702731Y-81425568D01*
X137714683Y-81412177D01*
X137727296Y-81399514D01*
X137740563Y-81387599D01*
X137754475Y-81376449D01*
X137769026Y-81366084D01*
X137784208Y-81356523D01*
X137800015Y-81347783D01*
X137816438Y-81339884D01*
X137833471Y-81332845D01*
X137851106Y-81326683D01*
X137869336Y-81321418D01*
X137888153Y-81317068D01*
X137907551Y-81313653D01*
X137927522Y-81311190D01*
X137948058Y-81309699D01*
X137969153Y-81309197D01*
X137990859Y-81309717D01*
X138012032Y-81311261D01*
X138032662Y-81313807D01*
X138052738Y-81317333D01*
X138072249Y-81321818D01*
X138091187Y-81327240D01*
X138109540Y-81333576D01*
X138127299Y-81340806D01*
X138144453Y-81348906D01*
X138160992Y-81357856D01*
X138176906Y-81367633D01*
X138192184Y-81378215D01*
X138206816Y-81389580D01*
X138220793Y-81401707D01*
X138234103Y-81414574D01*
X138246737Y-81428159D01*
X138258685Y-81442439D01*
X138269936Y-81457394D01*
X138280480Y-81473000D01*
X138290307Y-81489237D01*
X138299406Y-81506082D01*
X138307767Y-81523513D01*
X138315381Y-81541509D01*
X138322237Y-81560048D01*
X138328324Y-81579107D01*
X138333633Y-81598666D01*
X138338153Y-81618701D01*
X138341875Y-81639191D01*
X138344758Y-81659905D01*
X138344787Y-81660115D01*
G37*
G36*
X136455278Y-81951757D02*
G01*
X136459969Y-81952128D01*
X136464593Y-81952737D01*
X136469143Y-81953578D01*
X136473613Y-81954645D01*
X136477998Y-81955930D01*
X136482292Y-81957427D01*
X136486489Y-81959130D01*
X136490584Y-81961031D01*
X136494570Y-81963123D01*
X136498441Y-81965401D01*
X136502192Y-81967857D01*
X136505817Y-81970485D01*
X136509310Y-81973278D01*
X136512665Y-81976228D01*
X136515876Y-81979331D01*
X136518938Y-81982578D01*
X136521845Y-81985963D01*
X136524591Y-81989480D01*
X136527170Y-81993121D01*
X136529576Y-81996880D01*
X136531803Y-82000750D01*
X136533846Y-82004725D01*
X136535699Y-82008798D01*
X136537355Y-82012962D01*
X136538810Y-82017210D01*
X136540057Y-82021535D01*
X136541090Y-82025932D01*
X136541903Y-82030393D01*
X136542492Y-82034911D01*
X136542849Y-82039480D01*
X136542970Y-82044094D01*
X136542849Y-82048851D01*
X136542492Y-82053556D01*
X136541903Y-82058201D01*
X136541090Y-82062781D01*
X136540057Y-82067288D01*
X136538810Y-82071716D01*
X136537355Y-82076058D01*
X136535699Y-82080310D01*
X136533846Y-82084463D01*
X136531803Y-82088511D01*
X136529576Y-82092449D01*
X136527170Y-82096269D01*
X136524591Y-82099966D01*
X136521845Y-82103532D01*
X136518938Y-82106962D01*
X136515876Y-82110249D01*
X136512665Y-82113386D01*
X136509310Y-82116367D01*
X136505817Y-82119186D01*
X136502192Y-82121837D01*
X136498441Y-82124312D01*
X136494570Y-82126606D01*
X136490584Y-82128712D01*
X136486489Y-82130623D01*
X136482292Y-82132333D01*
X136477998Y-82133837D01*
X136473613Y-82135126D01*
X136469143Y-82136196D01*
X136464593Y-82137039D01*
X136459969Y-82137649D01*
X136455278Y-82138020D01*
X136450524Y-82138145D01*
X136445766Y-82138020D01*
X136441062Y-82137649D01*
X136436416Y-82137039D01*
X136431837Y-82136196D01*
X136427330Y-82135126D01*
X136422902Y-82133837D01*
X136418559Y-82132333D01*
X136414307Y-82130623D01*
X136410154Y-82128712D01*
X136406105Y-82126606D01*
X136402167Y-82124312D01*
X136398347Y-82121837D01*
X136394650Y-82119186D01*
X136391083Y-82116367D01*
X136387653Y-82113386D01*
X136384366Y-82110249D01*
X136381228Y-82106962D01*
X136378246Y-82103532D01*
X136375427Y-82099966D01*
X136372776Y-82096269D01*
X136370300Y-82092449D01*
X136368006Y-82088511D01*
X136365900Y-82084463D01*
X136363989Y-82080310D01*
X136362278Y-82076058D01*
X136360774Y-82071716D01*
X136359484Y-82067288D01*
X136358415Y-82062781D01*
X136357571Y-82058201D01*
X136356961Y-82053556D01*
X136356590Y-82048851D01*
X136356465Y-82044094D01*
X136356590Y-82039480D01*
X136356961Y-82034911D01*
X136357571Y-82030393D01*
X136358415Y-82025932D01*
X136359484Y-82021535D01*
X136360774Y-82017210D01*
X136362278Y-82012962D01*
X136363989Y-82008798D01*
X136365900Y-82004725D01*
X136368006Y-82000750D01*
X136370300Y-81996880D01*
X136372776Y-81993121D01*
X136375427Y-81989480D01*
X136378246Y-81985963D01*
X136381228Y-81982578D01*
X136384366Y-81979331D01*
X136387653Y-81976228D01*
X136391083Y-81973278D01*
X136394650Y-81970485D01*
X136398347Y-81967857D01*
X136402167Y-81965401D01*
X136406105Y-81963123D01*
X136410154Y-81961031D01*
X136414307Y-81959130D01*
X136418559Y-81957427D01*
X136422902Y-81955930D01*
X136427330Y-81954645D01*
X136431837Y-81953578D01*
X136436416Y-81952737D01*
X136441062Y-81952128D01*
X136445766Y-81951757D01*
X136450524Y-81951632D01*
X136455278Y-81951757D01*
G37*
D13*
X155750000Y-83750000D02*
G75*
G03*
X155750000Y-83750000I-5000000J0D01*
G01*
D12*
G36*
X144009876Y-81660115D02*
G01*
X144011968Y-81681449D01*
X144013231Y-81703174D01*
X144013655Y-81725265D01*
X144013236Y-81747348D01*
X144011986Y-81769045D01*
X144009914Y-81790337D01*
X144007029Y-81811202D01*
X144003341Y-81831621D01*
X143998859Y-81851571D01*
X143993593Y-81871032D01*
X143987551Y-81889984D01*
X143980743Y-81908407D01*
X143973179Y-81926278D01*
X143964867Y-81943578D01*
X143955818Y-81960285D01*
X143946040Y-81976379D01*
X143935543Y-81991840D01*
X143924336Y-82006647D01*
X143912428Y-82020778D01*
X143899829Y-82034213D01*
X143886548Y-82046932D01*
X143872595Y-82058913D01*
X143857979Y-82070136D01*
X143842708Y-82080581D01*
X143826794Y-82090226D01*
X143810244Y-82099051D01*
X143793068Y-82107035D01*
X143775275Y-82114157D01*
X143756876Y-82120397D01*
X143737879Y-82125733D01*
X143718293Y-82130146D01*
X143698128Y-82133615D01*
X143677394Y-82136118D01*
X143656099Y-82137635D01*
X143634253Y-82138145D01*
X143620325Y-82137945D01*
X143606640Y-82137346D01*
X143593199Y-82136353D01*
X143580002Y-82134969D01*
X143567048Y-82133197D01*
X143554340Y-82131041D01*
X143541875Y-82128505D01*
X143529656Y-82125591D01*
X143517682Y-82122304D01*
X143505954Y-82118647D01*
X143494471Y-82114623D01*
X143483235Y-82110236D01*
X143472245Y-82105489D01*
X143461501Y-82100386D01*
X143451005Y-82094931D01*
X143440756Y-82089126D01*
X143430755Y-82082976D01*
X143421001Y-82076484D01*
X143411496Y-82069653D01*
X143402239Y-82062487D01*
X143393231Y-82054989D01*
X143384471Y-82047164D01*
X143375962Y-82039013D01*
X143367701Y-82030542D01*
X143359691Y-82021753D01*
X143351931Y-82012650D01*
X143344421Y-82003236D01*
X143337163Y-81993516D01*
X143330155Y-81983491D01*
X143323398Y-81973167D01*
X143310641Y-81951632D01*
X143409489Y-81883084D01*
X143421417Y-81900858D01*
X143433325Y-81917146D01*
X143445271Y-81931997D01*
X143457310Y-81945455D01*
X143469499Y-81957568D01*
X143481892Y-81968383D01*
X143494548Y-81977946D01*
X143507520Y-81986304D01*
X143520867Y-81993504D01*
X143534643Y-81999593D01*
X143548905Y-82004616D01*
X143563708Y-82008622D01*
X143579110Y-82011656D01*
X143595166Y-82013765D01*
X143611932Y-82014997D01*
X143629464Y-82015397D01*
X143643177Y-82015109D01*
X143656516Y-82014251D01*
X143669478Y-82012833D01*
X143682063Y-82010863D01*
X143694270Y-82008352D01*
X143706097Y-82005309D01*
X143717543Y-82001742D01*
X143728607Y-81997662D01*
X143739288Y-81993077D01*
X143749585Y-81987998D01*
X143759497Y-81982432D01*
X143769022Y-81976391D01*
X143778160Y-81969882D01*
X143786908Y-81962915D01*
X143795266Y-81955500D01*
X143803234Y-81947647D01*
X143810809Y-81939363D01*
X143817990Y-81930659D01*
X143824777Y-81921544D01*
X143831167Y-81912028D01*
X143837161Y-81902119D01*
X143842757Y-81891827D01*
X143847953Y-81881162D01*
X143852749Y-81870132D01*
X143857144Y-81858747D01*
X143861135Y-81847017D01*
X143867905Y-81822557D01*
X143873050Y-81796827D01*
X143876561Y-81769901D01*
X143273969Y-81769901D01*
X143273445Y-81763926D01*
X143273052Y-81757970D01*
X143272769Y-81752051D01*
X143272580Y-81746188D01*
X143272407Y-81734706D01*
X143272382Y-81723672D01*
X143272773Y-81701164D01*
X143273941Y-81679086D01*
X143275660Y-81659905D01*
X143399911Y-81659905D01*
X143873372Y-81659905D01*
X143868759Y-81634735D01*
X143862698Y-81610681D01*
X143855199Y-81587813D01*
X143850913Y-81576845D01*
X143846270Y-81566201D01*
X143841273Y-81555888D01*
X143835922Y-81545915D01*
X143830218Y-81536292D01*
X143824163Y-81527026D01*
X143817757Y-81518127D01*
X143811002Y-81509604D01*
X143803900Y-81501464D01*
X143796450Y-81493717D01*
X143788655Y-81486372D01*
X143780516Y-81479438D01*
X143772033Y-81472922D01*
X143763208Y-81466835D01*
X143754042Y-81461184D01*
X143744537Y-81455979D01*
X143734693Y-81451228D01*
X143724511Y-81446939D01*
X143713993Y-81443123D01*
X143703140Y-81439787D01*
X143691953Y-81436940D01*
X143680434Y-81434591D01*
X143668583Y-81432749D01*
X143656401Y-81431422D01*
X143643890Y-81430620D01*
X143631051Y-81430350D01*
X143618508Y-81430610D01*
X143606284Y-81431387D01*
X143594383Y-81432672D01*
X143582806Y-81434460D01*
X143571556Y-81436743D01*
X143560635Y-81439513D01*
X143550046Y-81442765D01*
X143539791Y-81446491D01*
X143529872Y-81450684D01*
X143520291Y-81455337D01*
X143511052Y-81460442D01*
X143502155Y-81465994D01*
X143493604Y-81471985D01*
X143485402Y-81478408D01*
X143477549Y-81485256D01*
X143470049Y-81492522D01*
X143462904Y-81500199D01*
X143456116Y-81508280D01*
X143449688Y-81516757D01*
X143443621Y-81525625D01*
X143437920Y-81534876D01*
X143432584Y-81544503D01*
X143427618Y-81554498D01*
X143423023Y-81564856D01*
X143418802Y-81575568D01*
X143414956Y-81586629D01*
X143408403Y-81609765D01*
X143403382Y-81634209D01*
X143399911Y-81659905D01*
X143275660Y-81659905D01*
X143275880Y-81657456D01*
X143278581Y-81636293D01*
X143282037Y-81615616D01*
X143286242Y-81595443D01*
X143291187Y-81575794D01*
X143296866Y-81556686D01*
X143303272Y-81538139D01*
X143310396Y-81520170D01*
X143318232Y-81502800D01*
X143326772Y-81486046D01*
X143336009Y-81469927D01*
X143345936Y-81454462D01*
X143356546Y-81439670D01*
X143367830Y-81425568D01*
X143379783Y-81412177D01*
X143392396Y-81399514D01*
X143405662Y-81387599D01*
X143419574Y-81376449D01*
X143434125Y-81366084D01*
X143449308Y-81356523D01*
X143465114Y-81347783D01*
X143481537Y-81339884D01*
X143498570Y-81332845D01*
X143516205Y-81326683D01*
X143534435Y-81321418D01*
X143553252Y-81317068D01*
X143572650Y-81313653D01*
X143592621Y-81311190D01*
X143613158Y-81309699D01*
X143634253Y-81309197D01*
X143655958Y-81309717D01*
X143677131Y-81311261D01*
X143697760Y-81313807D01*
X143717835Y-81317333D01*
X143737346Y-81321818D01*
X143756284Y-81327240D01*
X143774636Y-81333576D01*
X143792395Y-81340806D01*
X143809548Y-81348906D01*
X143826087Y-81357856D01*
X143842000Y-81367633D01*
X143857277Y-81378215D01*
X143871910Y-81389580D01*
X143885886Y-81401707D01*
X143899196Y-81414574D01*
X143911830Y-81428159D01*
X143923777Y-81442439D01*
X143935027Y-81457394D01*
X143945571Y-81473000D01*
X143955397Y-81489237D01*
X143964496Y-81506082D01*
X143972858Y-81523513D01*
X143980471Y-81541509D01*
X143987326Y-81560048D01*
X143993414Y-81579107D01*
X143998722Y-81598666D01*
X144003242Y-81618701D01*
X144006964Y-81639191D01*
X144009846Y-81659905D01*
X144009876Y-81660115D01*
G37*
D11*
X144759211Y-80668349D02*
X144822923Y-80681728D01*
X144335134Y-80627946D02*
X144355223Y-80626584D01*
X144971890Y-80749814D02*
X144995967Y-80767347D01*
X145241640Y-81465634D02*
X145231836Y-81491432D01*
X145477276Y-81314452D02*
X145834546Y-81548121D01*
D12*
G36*
X142256678Y-80910965D02*
G01*
X142269138Y-80911859D01*
X142281418Y-80913334D01*
X142293503Y-80915374D01*
X142305376Y-80917967D01*
X142317023Y-80921098D01*
X142328427Y-80924754D01*
X142339574Y-80928921D01*
X142350448Y-80933586D01*
X142361033Y-80938734D01*
X142371314Y-80944352D01*
X142381275Y-80950427D01*
X142390902Y-80956943D01*
X142400177Y-80963889D01*
X142409087Y-80971250D01*
X142417616Y-80979012D01*
X142425747Y-80987162D01*
X142433466Y-80995685D01*
X142440757Y-81004569D01*
X142447605Y-81013800D01*
X142453994Y-81023363D01*
X142459909Y-81033245D01*
X142465333Y-81043432D01*
X142470253Y-81053911D01*
X142474651Y-81064668D01*
X142478514Y-81075689D01*
X142481824Y-81086961D01*
X142484568Y-81098469D01*
X142486728Y-81110200D01*
X142488291Y-81122141D01*
X142489240Y-81134277D01*
X142489559Y-81146595D01*
X142489559Y-81325139D01*
X142623465Y-81325139D01*
X142623465Y-81435134D01*
X142489559Y-81435134D01*
X142489559Y-82122204D01*
X142347663Y-82122204D01*
X142347663Y-81435134D01*
X142138854Y-81435134D01*
X142138854Y-81325139D01*
X142347663Y-81325139D01*
X142347663Y-81154564D01*
X142347538Y-81147892D01*
X142347165Y-81141329D01*
X142346548Y-81134882D01*
X142345693Y-81128558D01*
X142344603Y-81122363D01*
X142343283Y-81116305D01*
X142341737Y-81110390D01*
X142339969Y-81104624D01*
X142337985Y-81099015D01*
X142335787Y-81093569D01*
X142333382Y-81088293D01*
X142330772Y-81083194D01*
X142327963Y-81078277D01*
X142324958Y-81073551D01*
X142321762Y-81069022D01*
X142318380Y-81064696D01*
X142314816Y-81060580D01*
X142311074Y-81056681D01*
X142307159Y-81053006D01*
X142303074Y-81049561D01*
X142298825Y-81046353D01*
X142294415Y-81043388D01*
X142289850Y-81040675D01*
X142285133Y-81038218D01*
X142280269Y-81036025D01*
X142275262Y-81034103D01*
X142270116Y-81032458D01*
X142264837Y-81031097D01*
X142259427Y-81030027D01*
X142253893Y-81029254D01*
X142248237Y-81028786D01*
X142242465Y-81028628D01*
X142238592Y-81028688D01*
X142234750Y-81028868D01*
X142227161Y-81029578D01*
X142219714Y-81030740D01*
X142212421Y-81032339D01*
X142205296Y-81034359D01*
X142198354Y-81036783D01*
X142191609Y-81039594D01*
X142185073Y-81042777D01*
X142178762Y-81046314D01*
X142172689Y-81050190D01*
X142166868Y-81054389D01*
X142161313Y-81058893D01*
X142156037Y-81063687D01*
X142151055Y-81068754D01*
X142146381Y-81074078D01*
X142142029Y-81079642D01*
X142062310Y-80993557D01*
X142067720Y-80987148D01*
X142073182Y-80981068D01*
X142078694Y-80975307D01*
X142084250Y-80969857D01*
X142095485Y-80959862D01*
X142106859Y-80951015D01*
X142118345Y-80943251D01*
X142129914Y-80936506D01*
X142141539Y-80930713D01*
X142153191Y-80925808D01*
X142164843Y-80921724D01*
X142176467Y-80918397D01*
X142188035Y-80915762D01*
X142199519Y-80913752D01*
X142210890Y-80912303D01*
X142222121Y-80911348D01*
X142233185Y-80910824D01*
X142244052Y-80910663D01*
X142256678Y-80910965D01*
G37*
D11*
X145249711Y-81439071D02*
X145241640Y-81465634D01*
X144444203Y-80629079D02*
X144519903Y-80635337D01*
X144355223Y-80626584D02*
X144380600Y-80626378D01*
X145265374Y-81297662D02*
X145265412Y-81326815D01*
X144868544Y-80695110D02*
X144895364Y-80706308D01*
X145224835Y-81090623D02*
X145243242Y-81149483D01*
X144335107Y-80627943D02*
X145441619Y-80727223D01*
D12*
G36*
X143082808Y-81899025D02*
G01*
X143082534Y-81912194D01*
X143081715Y-81925092D01*
X143080360Y-81937708D01*
X143078474Y-81950035D01*
X143076065Y-81962061D01*
X143073140Y-81973778D01*
X143069706Y-81985175D01*
X143065770Y-81996243D01*
X143061339Y-82006973D01*
X143056420Y-82017354D01*
X143051020Y-82027378D01*
X143045146Y-82037034D01*
X143038805Y-82046313D01*
X143032003Y-82055205D01*
X143024749Y-82063700D01*
X143017049Y-82071790D01*
X143008910Y-82079464D01*
X143000339Y-82086713D01*
X142991343Y-82093526D01*
X142981929Y-82099896D01*
X142972104Y-82105811D01*
X142961876Y-82111262D01*
X142951250Y-82116240D01*
X142940234Y-82120734D01*
X142928836Y-82124736D01*
X142917062Y-82128236D01*
X142904919Y-82131223D01*
X142892414Y-82133689D01*
X142879554Y-82135624D01*
X142866346Y-82137018D01*
X142852797Y-82137862D01*
X142838915Y-82138145D01*
X142825631Y-82137884D01*
X142812690Y-82137108D01*
X142800100Y-82135823D01*
X142787867Y-82134035D01*
X142775999Y-82131752D01*
X142764503Y-82128982D01*
X142753385Y-82125730D01*
X142742653Y-82122005D01*
X142732313Y-82117812D01*
X142722373Y-82113159D01*
X142712840Y-82108054D01*
X142703720Y-82102502D01*
X142695020Y-82096511D01*
X142686748Y-82090089D01*
X142678910Y-82083241D01*
X142671513Y-82075976D01*
X142749618Y-81980326D01*
X142754141Y-81984941D01*
X142758747Y-81989225D01*
X142763441Y-81993181D01*
X142768231Y-81996815D01*
X142773124Y-82000132D01*
X142778127Y-82003136D01*
X142783246Y-82005832D01*
X142788489Y-82008224D01*
X142793862Y-82010317D01*
X142799373Y-82012116D01*
X142805028Y-82013625D01*
X142810835Y-82014850D01*
X142816800Y-82015794D01*
X142822930Y-82016463D01*
X142829232Y-82016861D01*
X142835713Y-82016992D01*
X142841765Y-82016875D01*
X142847665Y-82016526D01*
X142853410Y-82015943D01*
X142858998Y-82015127D01*
X142864426Y-82014079D01*
X142869692Y-82012799D01*
X142874792Y-82011288D01*
X142879725Y-82009544D01*
X142884488Y-82007570D01*
X142889077Y-82005365D01*
X142893491Y-82002929D01*
X142897726Y-82000263D01*
X142901781Y-81997367D01*
X142905652Y-81994241D01*
X142909337Y-81990885D01*
X142912833Y-81987301D01*
X142916138Y-81983488D01*
X142919248Y-81979446D01*
X142922162Y-81975176D01*
X142924876Y-81970678D01*
X142927388Y-81965952D01*
X142929696Y-81960999D01*
X142931797Y-81955818D01*
X142933687Y-81950411D01*
X142935365Y-81944778D01*
X142936828Y-81938918D01*
X142938073Y-81932832D01*
X142939097Y-81926521D01*
X142939899Y-81919984D01*
X142940475Y-81913222D01*
X142940822Y-81906236D01*
X142940938Y-81899025D01*
X142942526Y-80926605D01*
X143082808Y-80926605D01*
X143082808Y-81899025D01*
G37*
D11*
X144995967Y-80767347D02*
X145019265Y-80786256D01*
D13*
X137750000Y-74168000D02*
G75*
G03*
X137750000Y-74168000I-5000000J0D01*
G01*
D11*
X145263902Y-81355615D02*
X145260806Y-81383980D01*
X144601662Y-80644442D02*
X144683444Y-80655683D01*
X145256337Y-81208908D02*
X145260800Y-81238626D01*
X145477276Y-81314452D02*
X145222126Y-81523391D01*
X145019265Y-80786256D02*
X145041749Y-80806461D01*
X145243242Y-81149483D02*
X145256337Y-81208908D01*
X145063383Y-80827879D02*
X145084128Y-80850427D01*
X145834546Y-81548121D02*
X145740579Y-80334959D01*
D12*
G36*
X141467113Y-80911460D02*
G01*
X141498072Y-80913826D01*
X141528417Y-80917721D01*
X141558121Y-80923108D01*
X141587155Y-80929949D01*
X141615494Y-80938205D01*
X141643109Y-80947839D01*
X141669974Y-80958811D01*
X141696061Y-80971084D01*
X141721344Y-80984620D01*
X141745795Y-80999379D01*
X141769387Y-81015325D01*
X141792093Y-81032418D01*
X141813886Y-81050621D01*
X141834738Y-81069895D01*
X141854622Y-81090202D01*
X141873512Y-81111504D01*
X141891380Y-81133763D01*
X141908199Y-81156940D01*
X141923941Y-81180996D01*
X141938581Y-81205895D01*
X141952089Y-81231597D01*
X141964440Y-81258065D01*
X141975607Y-81285259D01*
X141985561Y-81313143D01*
X141994276Y-81341677D01*
X142001725Y-81370824D01*
X142007880Y-81400544D01*
X142012715Y-81430801D01*
X142016202Y-81461555D01*
X142018314Y-81492769D01*
X142019024Y-81524404D01*
X142018314Y-81556039D01*
X142016202Y-81587253D01*
X142012715Y-81618007D01*
X142007880Y-81648264D01*
X142001725Y-81677985D01*
X141994276Y-81707131D01*
X141985561Y-81735665D01*
X141975607Y-81763549D01*
X141964440Y-81790744D01*
X141952089Y-81817211D01*
X141938581Y-81842913D01*
X141923941Y-81867812D01*
X141908199Y-81891869D01*
X141891380Y-81915046D01*
X141873512Y-81937304D01*
X141854622Y-81958606D01*
X141834738Y-81978913D01*
X141813886Y-81998187D01*
X141792093Y-82016390D01*
X141769387Y-82033483D01*
X141745795Y-82049429D01*
X141721344Y-82064189D01*
X141696061Y-82077724D01*
X141669974Y-82089997D01*
X141643109Y-82100969D01*
X141615494Y-82110603D01*
X141587155Y-82118859D01*
X141558121Y-82125700D01*
X141528417Y-82131087D01*
X141498072Y-82134983D01*
X141467113Y-82137348D01*
X141435565Y-82138145D01*
X141412946Y-82137662D01*
X141390534Y-82136227D01*
X141368351Y-82133858D01*
X141346418Y-82130573D01*
X141324756Y-82126391D01*
X141303386Y-82121332D01*
X141282328Y-82115413D01*
X141261605Y-82108654D01*
X141241236Y-82101072D01*
X141221244Y-82092688D01*
X141201649Y-82083518D01*
X141182472Y-82073583D01*
X141163734Y-82062901D01*
X141145456Y-82051490D01*
X141127660Y-82039369D01*
X141110366Y-82026557D01*
X141110366Y-81851202D01*
X141127363Y-81869155D01*
X141144870Y-81885949D01*
X141162872Y-81901585D01*
X141181356Y-81916063D01*
X141200306Y-81929383D01*
X141219709Y-81941545D01*
X141239552Y-81952548D01*
X141259819Y-81962393D01*
X141280497Y-81971079D01*
X141301572Y-81978608D01*
X141323030Y-81984978D01*
X141344856Y-81990190D01*
X141367037Y-81994244D01*
X141389558Y-81997139D01*
X141412405Y-81998876D01*
X141435565Y-81999455D01*
X141460269Y-81998848D01*
X141484450Y-81997045D01*
X141508093Y-81994074D01*
X141531180Y-81989962D01*
X141553693Y-81984738D01*
X141575616Y-81978429D01*
X141596931Y-81971062D01*
X141617621Y-81962666D01*
X141637669Y-81953268D01*
X141657057Y-81942896D01*
X141675769Y-81931578D01*
X141693787Y-81919341D01*
X141711093Y-81906214D01*
X141727672Y-81892223D01*
X141743505Y-81877397D01*
X141758575Y-81861763D01*
X141772865Y-81845349D01*
X141786358Y-81828183D01*
X141799037Y-81810292D01*
X141810884Y-81791705D01*
X141821883Y-81772449D01*
X141832015Y-81752551D01*
X141841264Y-81732040D01*
X141849612Y-81710943D01*
X141857043Y-81689288D01*
X141863539Y-81667102D01*
X141869083Y-81644414D01*
X141873657Y-81621251D01*
X141877245Y-81597641D01*
X141879829Y-81573611D01*
X141881392Y-81549190D01*
X141881917Y-81524404D01*
X141881392Y-81499619D01*
X141879829Y-81475197D01*
X141877245Y-81451167D01*
X141873657Y-81427557D01*
X141869083Y-81404394D01*
X141863539Y-81381706D01*
X141857043Y-81359520D01*
X141849612Y-81337865D01*
X141841264Y-81316768D01*
X141832015Y-81296257D01*
X141821883Y-81276360D01*
X141810884Y-81257103D01*
X141799037Y-81238516D01*
X141786358Y-81220625D01*
X141772865Y-81203459D01*
X141758575Y-81187046D01*
X141743505Y-81171412D01*
X141727672Y-81156585D01*
X141711093Y-81142595D01*
X141693787Y-81129467D01*
X141675769Y-81117230D01*
X141657057Y-81105912D01*
X141637669Y-81095540D01*
X141617621Y-81086142D01*
X141596931Y-81077746D01*
X141575616Y-81070380D01*
X141553693Y-81064070D01*
X141531180Y-81058846D01*
X141508093Y-81054734D01*
X141484450Y-81051763D01*
X141460269Y-81049960D01*
X141435565Y-81049353D01*
X141412684Y-81049932D01*
X141390079Y-81051669D01*
X141367762Y-81054565D01*
X141345749Y-81058619D01*
X141324053Y-81063831D01*
X141302688Y-81070201D01*
X141281669Y-81077730D01*
X141261010Y-81086417D01*
X141240724Y-81096262D01*
X141220826Y-81107265D01*
X141201329Y-81119426D01*
X141182249Y-81132746D01*
X141163598Y-81147224D01*
X141145391Y-81162860D01*
X141127642Y-81179654D01*
X141110366Y-81197607D01*
X141110366Y-81022252D01*
X141127660Y-81009439D01*
X141145456Y-80997319D01*
X141163734Y-80985908D01*
X141182472Y-80975225D01*
X141201649Y-80965290D01*
X141221244Y-80956121D01*
X141241236Y-80947736D01*
X141261605Y-80940155D01*
X141282328Y-80933395D01*
X141303386Y-80927476D01*
X141324756Y-80922417D01*
X141346418Y-80918236D01*
X141368351Y-80914951D01*
X141390534Y-80912581D01*
X141412946Y-80911146D01*
X141435565Y-80910663D01*
X141467113Y-80911460D01*
G37*
G36*
X138827806Y-81325139D02*
G01*
X138931442Y-81325139D01*
X138931442Y-81435134D01*
X138827806Y-81435134D01*
X138827806Y-81899025D01*
X138827527Y-81912194D01*
X138826695Y-81925092D01*
X138825319Y-81937708D01*
X138823406Y-81950035D01*
X138820964Y-81962061D01*
X138818002Y-81973778D01*
X138814526Y-81985175D01*
X138810544Y-81996243D01*
X138806066Y-82006973D01*
X138801098Y-82017354D01*
X138795648Y-82027378D01*
X138789725Y-82037034D01*
X138783335Y-82046313D01*
X138776488Y-82055205D01*
X138769191Y-82063700D01*
X138761451Y-82071790D01*
X138753278Y-82079464D01*
X138744677Y-82086713D01*
X138735659Y-82093526D01*
X138726229Y-82099896D01*
X138716397Y-82105811D01*
X138706170Y-82111262D01*
X138695556Y-82116240D01*
X138684562Y-82120734D01*
X138673198Y-82124736D01*
X138661470Y-82128236D01*
X138649386Y-82131223D01*
X138636955Y-82133689D01*
X138624185Y-82135624D01*
X138611082Y-82137018D01*
X138597656Y-82137862D01*
X138583913Y-82138145D01*
X138570367Y-82137884D01*
X138557233Y-82137108D01*
X138544510Y-82135823D01*
X138532199Y-82134035D01*
X138520299Y-82131752D01*
X138508811Y-82128982D01*
X138497734Y-82125730D01*
X138487068Y-82122005D01*
X138476814Y-82117812D01*
X138466970Y-82113159D01*
X138457538Y-82108054D01*
X138448516Y-82102502D01*
X138439905Y-82096511D01*
X138431705Y-82090089D01*
X138423916Y-82083241D01*
X138416537Y-82075976D01*
X138494642Y-81980326D01*
X138499165Y-81984941D01*
X138503770Y-81989225D01*
X138508463Y-81993181D01*
X138513251Y-81996815D01*
X138518142Y-82000132D01*
X138523142Y-82003136D01*
X138528259Y-82005832D01*
X138533500Y-82008224D01*
X138538871Y-82010317D01*
X138544379Y-82012116D01*
X138550032Y-82013625D01*
X138555837Y-82014850D01*
X138561800Y-82015794D01*
X138567929Y-82016463D01*
X138574230Y-82016861D01*
X138580712Y-82016992D01*
X138586765Y-82016875D01*
X138592667Y-82016526D01*
X138598414Y-82015943D01*
X138604004Y-82015127D01*
X138609433Y-82014079D01*
X138614699Y-82012799D01*
X138619801Y-82011288D01*
X138624734Y-82009544D01*
X138629497Y-82007570D01*
X138634087Y-82005365D01*
X138638500Y-82002929D01*
X138642736Y-82000263D01*
X138646790Y-81997367D01*
X138650661Y-81994241D01*
X138654345Y-81990885D01*
X138657841Y-81987301D01*
X138661144Y-81983488D01*
X138664254Y-81979446D01*
X138667167Y-81975176D01*
X138669881Y-81970678D01*
X138672392Y-81965952D01*
X138674699Y-81960999D01*
X138676799Y-81955818D01*
X138678689Y-81950411D01*
X138680366Y-81944778D01*
X138681828Y-81938918D01*
X138683072Y-81932832D01*
X138684096Y-81926521D01*
X138684897Y-81919984D01*
X138685473Y-81913222D01*
X138685820Y-81906236D01*
X138685936Y-81899025D01*
X138685936Y-81435134D01*
X138470724Y-81435134D01*
X138470724Y-81325139D01*
X138687523Y-81325139D01*
X138687523Y-81054136D01*
X138827806Y-81054136D01*
X138827806Y-81325139D01*
G37*
D11*
X145265412Y-81326815D02*
X145263902Y-81355615D01*
X145740579Y-80334959D02*
X144335107Y-80627943D01*
X145256088Y-81411826D02*
X145249711Y-81439071D01*
D12*
G36*
X144586992Y-80910981D02*
G01*
X144605500Y-80911930D01*
X144623763Y-80913510D01*
X144641756Y-80915717D01*
X144659454Y-80918548D01*
X144676834Y-80922002D01*
X144693871Y-80926075D01*
X144710540Y-80930764D01*
X144726816Y-80936068D01*
X144742676Y-80941984D01*
X144758095Y-80948508D01*
X144773047Y-80955638D01*
X144787509Y-80963372D01*
X144801457Y-80971708D01*
X144814865Y-80980641D01*
X144827708Y-80990170D01*
X144839964Y-81000293D01*
X144851606Y-81011006D01*
X144862611Y-81022307D01*
X144872954Y-81034193D01*
X144882611Y-81046661D01*
X144891556Y-81059710D01*
X144899766Y-81073336D01*
X144907216Y-81087537D01*
X144913881Y-81102310D01*
X144919737Y-81117653D01*
X144924759Y-81133562D01*
X144928923Y-81150035D01*
X144932205Y-81167071D01*
X144934579Y-81184665D01*
X144936022Y-81202815D01*
X144936508Y-81221520D01*
X144936004Y-81239233D01*
X144934516Y-81256222D01*
X144932076Y-81272510D01*
X144928718Y-81288118D01*
X144924474Y-81303070D01*
X144919379Y-81317389D01*
X144913466Y-81331097D01*
X144906767Y-81344218D01*
X144899317Y-81356773D01*
X144891148Y-81368786D01*
X144882293Y-81380279D01*
X144872786Y-81391276D01*
X144862661Y-81401798D01*
X144851950Y-81411870D01*
X144828904Y-81430749D01*
X144803916Y-81448097D01*
X144777250Y-81464095D01*
X144749175Y-81478926D01*
X144719955Y-81492771D01*
X144689857Y-81505813D01*
X144659147Y-81518234D01*
X144596957Y-81541941D01*
X144540739Y-81563583D01*
X144513368Y-81574716D01*
X144486763Y-81586252D01*
X144461130Y-81598340D01*
X144436673Y-81611126D01*
X144413598Y-81624758D01*
X144402644Y-81631937D01*
X144392112Y-81639382D01*
X144382028Y-81647112D01*
X144372419Y-81655145D01*
X144363309Y-81663500D01*
X144354724Y-81672195D01*
X144346691Y-81681249D01*
X144339234Y-81690679D01*
X144332380Y-81700505D01*
X144326154Y-81710744D01*
X144320582Y-81721415D01*
X144315690Y-81732537D01*
X144311502Y-81744127D01*
X144308046Y-81756205D01*
X144305346Y-81768788D01*
X144303428Y-81781895D01*
X144302318Y-81795544D01*
X144302042Y-81809755D01*
X144302512Y-81822080D01*
X144303611Y-81833952D01*
X144305325Y-81845375D01*
X144307641Y-81856352D01*
X144310542Y-81866888D01*
X144314015Y-81876986D01*
X144318045Y-81886652D01*
X144322617Y-81895888D01*
X144327717Y-81904699D01*
X144333330Y-81913089D01*
X144339442Y-81921063D01*
X144346037Y-81928624D01*
X144353102Y-81935776D01*
X144360622Y-81942523D01*
X144368582Y-81948870D01*
X144376967Y-81954821D01*
X144385764Y-81960379D01*
X144394957Y-81965549D01*
X144414473Y-81974741D01*
X144435400Y-81982429D01*
X144457621Y-81988646D01*
X144481019Y-81993424D01*
X144505477Y-81996797D01*
X144530878Y-81998796D01*
X144557106Y-81999455D01*
X144572423Y-81999223D01*
X144587578Y-81998531D01*
X144602560Y-81997387D01*
X144617356Y-81995797D01*
X144631955Y-81993770D01*
X144646345Y-81991312D01*
X144660513Y-81988430D01*
X144674449Y-81985133D01*
X144688139Y-81981428D01*
X144701572Y-81977320D01*
X144714736Y-81972819D01*
X144727618Y-81967931D01*
X144740208Y-81962664D01*
X144752493Y-81957024D01*
X144764461Y-81951020D01*
X144776099Y-81944658D01*
X144787397Y-81937945D01*
X144798342Y-81930890D01*
X144808922Y-81923499D01*
X144819125Y-81915780D01*
X144828939Y-81907739D01*
X144838353Y-81899385D01*
X144847354Y-81890724D01*
X144855930Y-81881765D01*
X144864070Y-81872513D01*
X144871760Y-81862976D01*
X144878991Y-81853163D01*
X144885748Y-81843079D01*
X144892021Y-81832732D01*
X144897798Y-81822131D01*
X144903066Y-81811281D01*
X144907814Y-81800190D01*
X145013028Y-81906997D01*
X144996455Y-81931923D01*
X144977885Y-81955833D01*
X144957414Y-81978645D01*
X144935139Y-82000278D01*
X144911154Y-82020650D01*
X144885556Y-82039680D01*
X144858440Y-82057285D01*
X144829901Y-82073384D01*
X144800037Y-82087895D01*
X144768941Y-82100736D01*
X144736711Y-82111826D01*
X144703442Y-82121083D01*
X144669229Y-82128425D01*
X144634168Y-82133770D01*
X144598356Y-82137038D01*
X144561887Y-82138145D01*
X144519755Y-82136889D01*
X144478971Y-82133107D01*
X144459143Y-82130261D01*
X144439723Y-82126775D01*
X144420734Y-82122645D01*
X144402200Y-82117869D01*
X144384145Y-82112444D01*
X144366593Y-82106367D01*
X144349566Y-82099635D01*
X144333089Y-82092245D01*
X144317185Y-82084194D01*
X144301879Y-82075479D01*
X144287192Y-82066098D01*
X144273150Y-82056047D01*
X144259776Y-82045323D01*
X144247094Y-82033924D01*
X144235126Y-82021847D01*
X144223897Y-82009089D01*
X144213431Y-81995646D01*
X144203751Y-81981516D01*
X144194880Y-81966696D01*
X144186843Y-81951183D01*
X144179663Y-81934974D01*
X144173363Y-81918066D01*
X144167968Y-81900457D01*
X144163501Y-81882143D01*
X144159985Y-81863122D01*
X144157444Y-81843390D01*
X144155903Y-81822944D01*
X144155384Y-81801783D01*
X144155956Y-81781140D01*
X144157646Y-81761341D01*
X144160413Y-81742359D01*
X144164217Y-81724169D01*
X144169016Y-81706744D01*
X144174771Y-81690060D01*
X144181441Y-81674090D01*
X144188985Y-81658810D01*
X144197363Y-81644192D01*
X144206533Y-81630212D01*
X144216457Y-81616844D01*
X144227092Y-81604062D01*
X144238398Y-81591840D01*
X144250335Y-81580153D01*
X144275940Y-81558280D01*
X144303581Y-81538239D01*
X144332933Y-81519822D01*
X144363673Y-81502825D01*
X144395475Y-81487043D01*
X144428015Y-81472269D01*
X144460968Y-81458299D01*
X144526816Y-81431946D01*
X144577938Y-81412159D01*
X144602591Y-81402070D01*
X144626425Y-81391718D01*
X144649278Y-81381002D01*
X144670989Y-81369821D01*
X144691397Y-81358074D01*
X144701062Y-81351958D01*
X144710341Y-81345663D01*
X144719214Y-81339176D01*
X144727660Y-81332485D01*
X144735660Y-81325577D01*
X144743192Y-81318441D01*
X144750238Y-81311063D01*
X144756777Y-81303430D01*
X144762789Y-81295531D01*
X144768254Y-81287352D01*
X144773151Y-81278881D01*
X144777460Y-81270106D01*
X144781162Y-81261014D01*
X144784236Y-81251593D01*
X144786661Y-81241829D01*
X144788419Y-81231711D01*
X144789488Y-81221225D01*
X144789849Y-81210360D01*
X144789548Y-81199342D01*
X144788656Y-81188705D01*
X144787188Y-81178448D01*
X144785160Y-81168567D01*
X144782588Y-81159061D01*
X144779488Y-81149927D01*
X144775875Y-81141164D01*
X144771766Y-81132770D01*
X144767175Y-81124743D01*
X144762119Y-81117080D01*
X144756614Y-81109780D01*
X144750675Y-81102840D01*
X144744317Y-81096259D01*
X144737558Y-81090034D01*
X144730412Y-81084163D01*
X144722895Y-81078645D01*
X144715024Y-81073477D01*
X144706813Y-81068657D01*
X144689437Y-81060054D01*
X144670894Y-81052819D01*
X144651308Y-81046937D01*
X144630808Y-81042390D01*
X144609518Y-81039162D01*
X144587565Y-81037238D01*
X144565075Y-81036600D01*
X144551312Y-81036767D01*
X144537820Y-81037264D01*
X144524599Y-81038085D01*
X144511650Y-81039225D01*
X144498973Y-81040675D01*
X144486569Y-81042432D01*
X144474437Y-81044488D01*
X144462578Y-81046837D01*
X144450992Y-81049474D01*
X144439680Y-81052391D01*
X144428641Y-81055584D01*
X144417877Y-81059045D01*
X144407387Y-81062769D01*
X144397171Y-81066750D01*
X144387231Y-81070981D01*
X144377566Y-81075457D01*
X144368176Y-81080170D01*
X144359063Y-81085116D01*
X144350225Y-81090288D01*
X144341664Y-81095679D01*
X144333379Y-81101284D01*
X144325372Y-81107097D01*
X144317641Y-81113111D01*
X144310189Y-81119320D01*
X144303014Y-81125718D01*
X144296117Y-81132300D01*
X144289499Y-81139058D01*
X144283160Y-81145987D01*
X144277099Y-81153081D01*
X144271318Y-81160334D01*
X144265817Y-81167738D01*
X144260595Y-81175289D01*
X144163353Y-81076454D01*
X144179004Y-81058830D01*
X144196052Y-81041868D01*
X144214473Y-81025636D01*
X144234243Y-81010197D01*
X144255339Y-80995618D01*
X144277739Y-80981963D01*
X144301418Y-80969299D01*
X144326354Y-80957690D01*
X144352522Y-80947202D01*
X144379900Y-80937901D01*
X144408465Y-80929851D01*
X144438192Y-80923118D01*
X144469059Y-80917767D01*
X144501042Y-80913864D01*
X144534118Y-80911475D01*
X144568263Y-80910663D01*
X144586992Y-80910981D01*
G37*
D11*
X144848373Y-80688463D02*
X144868544Y-80695110D01*
X145477276Y-81314452D02*
X145740579Y-80334959D01*
X144895364Y-80706308D02*
X144921552Y-80719213D01*
D12*
G36*
X140553149Y-81309355D02*
G01*
X140561755Y-81309826D01*
X140570316Y-81310605D01*
X140578827Y-81311688D01*
X140587285Y-81313070D01*
X140595685Y-81314746D01*
X140604023Y-81316711D01*
X140612295Y-81318961D01*
X140628626Y-81324298D01*
X140644644Y-81330718D01*
X140660317Y-81338184D01*
X140675612Y-81346659D01*
X140690496Y-81356105D01*
X140704937Y-81366486D01*
X140718901Y-81377763D01*
X140732356Y-81389899D01*
X140745269Y-81402858D01*
X140757608Y-81416601D01*
X140769339Y-81431091D01*
X140780430Y-81446291D01*
X140786807Y-81325139D01*
X140915924Y-81325139D01*
X140915924Y-82122204D01*
X140775641Y-82122204D01*
X140775641Y-81675846D01*
X140775327Y-81662669D01*
X140774396Y-81649745D01*
X140772866Y-81637085D01*
X140770756Y-81624700D01*
X140768085Y-81612602D01*
X140764871Y-81600800D01*
X140761131Y-81589307D01*
X140756886Y-81578131D01*
X140752152Y-81567285D01*
X140746949Y-81556779D01*
X140741294Y-81546624D01*
X140735207Y-81536830D01*
X140728705Y-81527409D01*
X140721807Y-81518371D01*
X140714531Y-81509727D01*
X140706896Y-81501488D01*
X140698920Y-81493665D01*
X140690622Y-81486268D01*
X140682019Y-81479309D01*
X140673131Y-81472797D01*
X140663975Y-81466744D01*
X140654571Y-81461161D01*
X140644936Y-81456059D01*
X140635088Y-81451448D01*
X140625047Y-81447338D01*
X140614831Y-81443742D01*
X140604457Y-81440669D01*
X140593945Y-81438131D01*
X140583313Y-81436138D01*
X140572578Y-81434701D01*
X140561761Y-81433831D01*
X140550878Y-81433538D01*
X140540360Y-81433720D01*
X140530325Y-81434242D01*
X140520772Y-81435073D01*
X140511696Y-81436179D01*
X140503097Y-81437528D01*
X140494972Y-81439087D01*
X140487319Y-81440823D01*
X140480135Y-81442705D01*
X140473418Y-81444698D01*
X140467165Y-81446771D01*
X140461375Y-81448890D01*
X140456045Y-81451024D01*
X140451172Y-81453139D01*
X140446755Y-81455202D01*
X140439277Y-81459044D01*
X140370723Y-81357021D01*
X140379102Y-81350967D01*
X140387540Y-81345354D01*
X140396095Y-81340176D01*
X140404826Y-81335425D01*
X140413791Y-81331095D01*
X140423047Y-81327177D01*
X140432654Y-81323667D01*
X140442670Y-81320555D01*
X140453152Y-81317836D01*
X140464160Y-81315502D01*
X140475752Y-81313546D01*
X140487985Y-81311962D01*
X140500918Y-81310742D01*
X140514610Y-81309879D01*
X140529118Y-81309367D01*
X140544501Y-81309197D01*
X140553149Y-81309355D01*
G37*
D11*
X145740579Y-80334959D02*
X145441619Y-80727223D01*
X144822923Y-80681728D02*
X144848373Y-80688463D01*
X145140672Y-80924028D02*
X145173256Y-80977236D01*
D14*
%TO.C,J1*%
X144745000Y-79270000D02*
X143495000Y-79270000D01*
X138485000Y-78980000D02*
X138485000Y-71360000D01*
X144455000Y-78980000D02*
X138485000Y-78980000D01*
X142195000Y-78970000D02*
X142195000Y-78220000D01*
X143695000Y-78970000D02*
X143695000Y-77170000D01*
X144445000Y-78970000D02*
X143695000Y-78970000D01*
X139245000Y-78220000D02*
X139245000Y-75170000D01*
X142195000Y-78220000D02*
X139245000Y-78220000D01*
X144745000Y-78020000D02*
X144745000Y-79270000D01*
X143695000Y-77170000D02*
X144445000Y-77170000D01*
X144445000Y-77170000D02*
X144445000Y-78970000D01*
X143695000Y-75670000D02*
X143695000Y-74670000D01*
X144445000Y-75670000D02*
X143695000Y-75670000D01*
X143695000Y-74670000D02*
X144445000Y-74670000D01*
X144445000Y-74670000D02*
X144445000Y-75670000D01*
X143695000Y-73170000D02*
X143695000Y-71370000D01*
X144445000Y-73170000D02*
X143695000Y-73170000D01*
X139245000Y-72120000D02*
X139245000Y-75170000D01*
X142195000Y-72120000D02*
X139245000Y-72120000D01*
X142195000Y-71370000D02*
X142195000Y-72120000D01*
X143695000Y-71370000D02*
X144445000Y-71370000D01*
X144445000Y-71370000D02*
X144445000Y-73170000D01*
X138485000Y-71360000D02*
X144455000Y-71360000D01*
X144455000Y-71360000D02*
X144455000Y-78980000D01*
%TD*%
M02*
